<?xml version="1.0" encoding="utf-8"?>
<!-- Generator: Adobe Illustrator 26.5.0, SVG Export Plug-In . SVG Version: 6.00 Build 0)  -->
<svg version="1.1" id="Capa_1" xmlns="http://www.w3.org/2000/svg" xmlns:xlink="http://www.w3.org/1999/xlink" x="0px" y="0px"
	 viewBox="0 0 150 150" style="enable-background:new 0 0 150 150;" xml:space="preserve">
<style type="text/css">
	.st0{fill:#26236B;}
	.st1{clip-path:url(#SVGID_00000024712249416624399180000005026739431534033572_);fill:#FD4F1C;}
	.st2{clip-path:url(#SVGID_00000024712249416624399180000005026739431534033572_);fill:#26236B;}
	.st3{fill:#F5EBDD;}
	.st4{fill:#3C65B1;}
	.st5{fill:#FD4F1C;}
	.st6{fill:#F7CA07;}
	.st7{fill:#FDF3F3;}
	.st8{fill:none;stroke:#26236B;stroke-width:3.7024;stroke-linecap:round;stroke-linejoin:round;stroke-miterlimit:10;}
	.st9{clip-path:url(#SVGID_00000054957754171156353620000009660902952565588650_);fill:#3C65B1;}
	
		.st10{clip-path:url(#SVGID_00000054957754171156353620000009660902952565588650_);fill:none;stroke:#FDF3F3;stroke-width:1.8512;stroke-miterlimit:10;}
	.st11{clip-path:url(#SVGID_00000005227521293413785020000016707071758738991782_);fill:#FD4F1C;}
	.st12{clip-path:url(#SVGID_00000005227521293413785020000016707071758738991782_);fill:#26236B;}
	.st13{fill:#272943;}
	.st14{fill:none;stroke:#FD4F1C;stroke-width:14.4943;stroke-linecap:round;stroke-linejoin:round;stroke-miterlimit:10;}
	.st15{fill:none;stroke:#F7CA07;stroke-width:5.5536;stroke-miterlimit:10;}
	.st16{fill:none;stroke:#F7CA07;stroke-width:13.9001;stroke-miterlimit:10;}
	.st17{fill:none;stroke:#FDF3F3;stroke-width:1.8512;stroke-linecap:round;stroke-linejoin:round;stroke-miterlimit:10;}
	.st18{fill:none;stroke:#26236B;stroke-width:4.6136;stroke-linecap:round;stroke-linejoin:round;stroke-miterlimit:10;}
	.st19{fill:none;stroke:#FD4F1C;stroke-width:5.5536;stroke-linejoin:round;stroke-miterlimit:10;}
	.st20{fill:none;stroke:#3C65B1;stroke-width:4;stroke-miterlimit:10;}
	.st21{fill:none;stroke:#FFFFFF;stroke-width:4;stroke-miterlimit:10;}
	.st22{fill:none;stroke:#F7CA07;stroke-width:1.8512;stroke-miterlimit:10;}
	.st23{fill:none;stroke:#26236B;stroke-width:4.6472;stroke-linecap:round;stroke-linejoin:round;stroke-miterlimit:10;}
	.st24{fill:none;stroke:#26236B;stroke-width:4.2854;stroke-linecap:round;stroke-linejoin:round;stroke-miterlimit:10;}
	.st25{fill:none;stroke:#F7CA07;stroke-width:20.5117;stroke-linecap:round;stroke-linejoin:round;stroke-miterlimit:10;}
	.st26{clip-path:url(#SVGID_00000034091641093712382720000007184786360908135830_);}
	.st27{clip-path:url(#SVGID_00000129893617879375032460000011327177786191337092_);}
	.st28{fill:none;stroke:#FDF3F3;stroke-width:31.6576;stroke-miterlimit:10;}
	.st29{fill:none;stroke:#3C65B1;stroke-width:4;stroke-linecap:round;stroke-miterlimit:10;}
	.st30{clip-path:url(#SVGID_00000020362519542567277910000014588626792347904929_);fill:#FD4F1C;}
	.st31{fill:none;stroke:#26236B;stroke-width:4;stroke-miterlimit:10;}
	.st32{clip-path:url(#SVGID_00000097482487352015016790000004051395262781020293_);fill:#FD4F1C;}
	.st33{fill:none;stroke:#3C65B1;stroke-width:3;stroke-linecap:round;stroke-miterlimit:10;}
	.st34{fill:none;stroke:#26236B;stroke-width:3;stroke-linecap:round;stroke-linejoin:round;stroke-miterlimit:10;}
	.st35{clip-path:url(#SVGID_00000015345364603487912650000006010075636174461873_);fill:#FD4F1C;}
	.st36{clip-path:url(#SVGID_00000060016198530754303500000010166688354659997119_);fill:#FD4F1C;}
	.st37{fill:none;stroke:#26236B;stroke-width:2.6467;stroke-linecap:round;stroke-linejoin:round;stroke-miterlimit:10;}
	.st38{clip-path:url(#SVGID_00000114756050519492323970000003087179962901732999_);fill:#FD4F1C;}
	.st39{clip-path:url(#SVGID_00000000220752974285242900000013110067025135781036_);fill:#FD4F1C;}
	.st40{fill:none;stroke:#3C65B1;stroke-width:3.2239;stroke-miterlimit:10;}
	.st41{fill:none;stroke:#FFFFFF;stroke-width:3.2239;stroke-miterlimit:10;}
	.st42{fill:none;stroke:#26236B;stroke-width:3.2239;stroke-miterlimit:10;}
</style>
<g>
	<path class="st4" d="M67.52,103.5c2,1.97,4.22,3.8,6.64,5.44c19.98,13.59,47.58,9.61,62.92-9.06
		c18.1-22.03,12.83-55.12-11.91-70.29c-17.4-10.67-40.08-8.72-55.46,4.7c-2.68,2.34-4.99,4.87-6.98,7.55
		c-3.03,4.09-8.57,5.19-12.97,2.63c-0.08-0.05-0.17-0.1-0.25-0.14C37.48,37.49,22,39.83,12.52,49.9
		C-0.05,63.26,1.95,84.16,16.15,94.99c8.85,6.75,20.21,7.89,29.83,3.99C53.36,96,61.85,97.92,67.52,103.5z"/>
	<g>
		<path class="st5" d="M56.14,95.38c-5.53-3.25-11.97-5.12-18.86-5.12c-20.5,0-37.13,16.54-37.29,37.01h37.71
			C37.82,113.67,45.19,101.81,56.14,95.38z"/>
		<path class="st6" d="M75,90.26c-6.88,0-13.32,1.87-18.86,5.12c-10.95,6.43-18.33,18.29-18.43,31.88h36.86h0.85
			c0.1-13.59,7.48-25.45,18.43-31.88C88.32,92.13,81.88,90.26,75,90.26z"/>
		<path class="st7" d="M112.71,90.26c-6.88,0-13.32,1.87-18.86,5.12c-10.95,6.43-18.33,18.29-18.43,31.88h36.86H150
			C149.84,106.8,133.21,90.26,112.71,90.26z"/>
	</g>
</g>
</svg>
