<?xml version="1.0" encoding="utf-8"?>
<!-- Generator: Adobe Illustrator 26.5.0, SVG Export Plug-In . SVG Version: 6.00 Build 0)  -->
<svg version="1.1" id="Capa_1" xmlns="http://www.w3.org/2000/svg" xmlns:xlink="http://www.w3.org/1999/xlink" x="0px" y="0px"
	 viewBox="0 0 150 150" style="enable-background:new 0 0 150 150;" xml:space="preserve">
<style type="text/css">
	.st0{fill:#26236B;}
	.st1{clip-path:url(#SVGID_00000164480824815343998460000004295147650234202804_);fill:#FD4F1C;}
	.st2{clip-path:url(#SVGID_00000164480824815343998460000004295147650234202804_);fill:#26236B;}
	.st3{fill:#F5EBDD;}
	.st4{fill:#3C65B1;}
	.st5{fill:#FD4F1C;}
	.st6{fill:#F7CA07;}
	.st7{fill:#FDF3F3;}
	.st8{fill:none;stroke:#26236B;stroke-width:3.7024;stroke-linecap:round;stroke-linejoin:round;stroke-miterlimit:10;}
	.st9{clip-path:url(#SVGID_00000150816137686201482020000008336312823304395194_);fill:#3C65B1;}
	
		.st10{clip-path:url(#SVGID_00000150816137686201482020000008336312823304395194_);fill:none;stroke:#FDF3F3;stroke-width:1.8512;stroke-miterlimit:10;}
	.st11{clip-path:url(#SVGID_00000070808426815844231290000012088669827182134966_);fill:#FD4F1C;}
	.st12{clip-path:url(#SVGID_00000070808426815844231290000012088669827182134966_);fill:#26236B;}
	.st13{fill:#272943;}
	.st14{fill:none;stroke:#FD4F1C;stroke-width:14.4943;stroke-linecap:round;stroke-linejoin:round;stroke-miterlimit:10;}
	.st15{fill:none;stroke:#F7CA07;stroke-width:5.5536;stroke-miterlimit:10;}
	.st16{fill:none;stroke:#F7CA07;stroke-width:13.9001;stroke-miterlimit:10;}
	.st17{fill:none;stroke:#FDF3F3;stroke-width:1.8512;stroke-linecap:round;stroke-linejoin:round;stroke-miterlimit:10;}
	.st18{fill:none;stroke:#26236B;stroke-width:4.6136;stroke-linecap:round;stroke-linejoin:round;stroke-miterlimit:10;}
	.st19{fill:none;stroke:#FD4F1C;stroke-width:5.5536;stroke-linejoin:round;stroke-miterlimit:10;}
	.st20{fill:none;stroke:#3C65B1;stroke-width:4;stroke-miterlimit:10;}
	.st21{fill:none;stroke:#FFFFFF;stroke-width:4;stroke-miterlimit:10;}
	.st22{fill:none;stroke:#F7CA07;stroke-width:1.8512;stroke-miterlimit:10;}
	.st23{fill:none;stroke:#26236B;stroke-width:4.6472;stroke-linecap:round;stroke-linejoin:round;stroke-miterlimit:10;}
	.st24{fill:none;stroke:#26236B;stroke-width:4.2854;stroke-linecap:round;stroke-linejoin:round;stroke-miterlimit:10;}
	.st25{fill:none;stroke:#F7CA07;stroke-width:20.5117;stroke-linecap:round;stroke-linejoin:round;stroke-miterlimit:10;}
	.st26{clip-path:url(#SVGID_00000094614392942829840140000000514663579414055605_);}
	.st27{clip-path:url(#SVGID_00000100344935453958750770000009383049451817216187_);}
	.st28{fill:none;stroke:#FDF3F3;stroke-width:31.6576;stroke-miterlimit:10;}
	.st29{fill:none;stroke:#3C65B1;stroke-width:4;stroke-linecap:round;stroke-miterlimit:10;}
	.st30{clip-path:url(#SVGID_00000058585325089614875080000009518592198109053354_);fill:#FD4F1C;}
	.st31{fill:none;stroke:#26236B;stroke-width:4;stroke-miterlimit:10;}
	.st32{clip-path:url(#SVGID_00000003808053033047507480000008973035653873979324_);fill:#FD4F1C;}
	.st33{fill:none;stroke:#3C65B1;stroke-width:3;stroke-linecap:round;stroke-miterlimit:10;}
	.st34{fill:none;stroke:#26236B;stroke-width:3;stroke-linecap:round;stroke-linejoin:round;stroke-miterlimit:10;}
	.st35{clip-path:url(#SVGID_00000165234998008520162480000009525276184658381227_);fill:#FD4F1C;}
	.st36{clip-path:url(#SVGID_00000058555357057754853930000011723011729189108880_);fill:#FD4F1C;}
	.st37{fill:none;stroke:#26236B;stroke-width:2.6467;stroke-linecap:round;stroke-linejoin:round;stroke-miterlimit:10;}
	.st38{clip-path:url(#SVGID_00000006702053232933891060000009748089595247259583_);fill:#FD4F1C;}
	.st39{clip-path:url(#SVGID_00000049180957547639206290000015684950118453293463_);fill:#FD4F1C;}
	.st40{fill:none;stroke:#3C65B1;stroke-width:3.2239;stroke-miterlimit:10;}
	.st41{fill:none;stroke:#FFFFFF;stroke-width:3.2239;stroke-miterlimit:10;}
	.st42{fill:none;stroke:#26236B;stroke-width:3.2239;stroke-miterlimit:10;}
</style>
<g>
	<g>
		<path class="st5" d="M75.39,30.23c-4.4-2.58-9.52-4.07-14.99-4.07c-16.3,0-29.52,13.15-29.64,29.42h29.98
			C60.82,44.77,66.68,35.35,75.39,30.23z"/>
		<path class="st4" d="M90.38,26.16c-5.47,0-10.59,1.49-14.99,4.07c-8.71,5.11-14.57,14.54-14.65,25.35h29.3h0.68
			c0.08-10.81,5.95-20.23,14.65-25.35C100.97,27.65,95.85,26.16,90.38,26.16z"/>
		<path class="st7" d="M120.36,26.16c-5.47,0-10.59,1.49-14.99,4.07c-8.71,5.11-14.57,14.54-14.65,25.35h29.3H150
			C149.88,39.31,136.66,26.16,120.36,26.16z"/>
	</g>
	<g>
		<path class="st5" d="M54.38,98.49c-4.4-2.58-9.52-4.07-14.99-4.07c-16.3,0-29.52,13.15-29.64,29.42h29.98
			C39.81,113.03,45.68,103.61,54.38,98.49z"/>
		<path class="st4" d="M69.37,94.42c-5.47,0-10.59,1.49-14.99,4.07c-8.71,5.11-14.57,14.54-14.65,25.35h29.3h0.68
			c0.08-10.81,5.95-20.23,14.65-25.35C79.97,95.91,74.85,94.42,69.37,94.42z"/>
		<path class="st7" d="M99.36,94.42c-5.47,0-10.59,1.49-14.99,4.07c-8.71,5.11-14.57,14.54-14.65,25.35h29.3H129
			C128.87,107.57,115.65,94.42,99.36,94.42z"/>
	</g>
	<g>
		<path class="st5" d="M53.88,51.99c-5.31-3.12-11.49-4.92-18.1-4.92C16.11,47.07,0.15,62.95,0,82.58h36.19
			C36.29,69.54,43.37,58.16,53.88,51.99z"/>
		<path class="st4" d="M71.97,47.07c-6.6,0-12.78,1.8-18.1,4.92c-10.51,6.17-17.59,17.55-17.69,30.6h35.37h0.82
			c0.1-13.05,7.18-24.42,17.69-30.6C84.76,48.87,78.58,47.07,71.97,47.07z"/>
		<path class="st7" d="M108.16,47.07c-6.6,0-12.78,1.8-18.1,4.92c-10.51,6.17-17.59,17.55-17.69,30.6h35.37h36.19
			C143.79,62.95,127.83,47.07,108.16,47.07z"/>
	</g>
</g>
</svg>
