<?xml version="1.0" encoding="utf-8"?>
<!-- Generator: Adobe Illustrator 26.5.0, SVG Export Plug-In . SVG Version: 6.00 Build 0)  -->
<svg version="1.1" id="Capa_1" xmlns="http://www.w3.org/2000/svg" xmlns:xlink="http://www.w3.org/1999/xlink" x="0px" y="0px"
	 viewBox="0 0 150 150" style="enable-background:new 0 0 150 150;" xml:space="preserve">
<style type="text/css">
	.st0{fill:#26236B;}
	.st1{clip-path:url(#SVGID_00000043436408157099398150000012997620065719902612_);fill:#FD4F1C;}
	.st2{clip-path:url(#SVGID_00000043436408157099398150000012997620065719902612_);fill:#26236B;}
	.st3{fill:#F5EBDD;}
	.st4{fill:#3C65B1;}
	.st5{fill:#FD4F1C;}
	.st6{fill:#F7CA07;}
	.st7{fill:#FDF3F3;}
	.st8{fill:none;stroke:#26236B;stroke-width:3.7024;stroke-linecap:round;stroke-linejoin:round;stroke-miterlimit:10;}
	.st9{clip-path:url(#SVGID_00000077314588609384809580000015840002983729060259_);fill:#3C65B1;}
	
		.st10{clip-path:url(#SVGID_00000077314588609384809580000015840002983729060259_);fill:none;stroke:#FDF3F3;stroke-width:1.8512;stroke-miterlimit:10;}
	.st11{clip-path:url(#SVGID_00000126298827754872797170000015914008733564827017_);fill:#FD4F1C;}
	.st12{clip-path:url(#SVGID_00000126298827754872797170000015914008733564827017_);fill:#26236B;}
	.st13{fill:#272943;}
	.st14{fill:none;stroke:#FD4F1C;stroke-width:14.4943;stroke-linecap:round;stroke-linejoin:round;stroke-miterlimit:10;}
	.st15{fill:none;stroke:#F7CA07;stroke-width:5.5536;stroke-miterlimit:10;}
	.st16{fill:none;stroke:#F7CA07;stroke-width:13.9001;stroke-miterlimit:10;}
	.st17{fill:none;stroke:#FDF3F3;stroke-width:1.8512;stroke-linecap:round;stroke-linejoin:round;stroke-miterlimit:10;}
	.st18{fill:none;stroke:#26236B;stroke-width:4.6136;stroke-linecap:round;stroke-linejoin:round;stroke-miterlimit:10;}
	.st19{fill:none;stroke:#FD4F1C;stroke-width:5.5536;stroke-linejoin:round;stroke-miterlimit:10;}
	.st20{fill:none;stroke:#3C65B1;stroke-width:4;stroke-miterlimit:10;}
	.st21{fill:none;stroke:#FFFFFF;stroke-width:4;stroke-miterlimit:10;}
	.st22{fill:none;stroke:#F7CA07;stroke-width:1.8512;stroke-miterlimit:10;}
	.st23{fill:none;stroke:#26236B;stroke-width:4.6472;stroke-linecap:round;stroke-linejoin:round;stroke-miterlimit:10;}
	.st24{fill:none;stroke:#26236B;stroke-width:4.2854;stroke-linecap:round;stroke-linejoin:round;stroke-miterlimit:10;}
	.st25{fill:none;stroke:#F7CA07;stroke-width:20.5117;stroke-linecap:round;stroke-linejoin:round;stroke-miterlimit:10;}
	.st26{clip-path:url(#SVGID_00000105404445361268322840000008343667420323774853_);}
	.st27{clip-path:url(#SVGID_00000153681969886935104540000002604197444804083900_);}
	.st28{fill:none;stroke:#FDF3F3;stroke-width:31.6576;stroke-miterlimit:10;}
	.st29{fill:none;stroke:#3C65B1;stroke-width:4;stroke-linecap:round;stroke-miterlimit:10;}
	.st30{clip-path:url(#SVGID_00000180347460183306645110000005415747548562000540_);fill:#FD4F1C;}
	.st31{fill:none;stroke:#26236B;stroke-width:4;stroke-miterlimit:10;}
	.st32{clip-path:url(#SVGID_00000007390593923037427890000011704583288243861173_);fill:#FD4F1C;}
	.st33{fill:none;stroke:#3C65B1;stroke-width:3;stroke-linecap:round;stroke-miterlimit:10;}
	.st34{fill:none;stroke:#26236B;stroke-width:3;stroke-linecap:round;stroke-linejoin:round;stroke-miterlimit:10;}
	.st35{clip-path:url(#SVGID_00000101095581285806238480000002701195442265128581_);fill:#FD4F1C;}
	.st36{clip-path:url(#SVGID_00000111878814121581231570000006516261761426309818_);fill:#FD4F1C;}
	.st37{fill:none;stroke:#26236B;stroke-width:2.6467;stroke-linecap:round;stroke-linejoin:round;stroke-miterlimit:10;}
	.st38{clip-path:url(#SVGID_00000085228779365863683900000005784110938247496868_);fill:#FD4F1C;}
	.st39{clip-path:url(#SVGID_00000107576558466642070830000006250617480873134753_);fill:#FD4F1C;}
	.st40{fill:none;stroke:#3C65B1;stroke-width:3.2239;stroke-miterlimit:10;}
	.st41{fill:none;stroke:#FFFFFF;stroke-width:3.2239;stroke-miterlimit:10;}
	.st42{fill:none;stroke:#26236B;stroke-width:3.2239;stroke-miterlimit:10;}
</style>
<g>
	<g>
		<path class="st4" d="M67.52,81.03c2,1.97,4.22,3.8,6.64,5.44c19.98,13.59,47.58,9.61,62.92-9.06
			c18.1-22.03,12.83-55.12-11.91-70.29c-17.4-10.67-40.08-8.72-55.46,4.7c-2.68,2.34-4.99,4.87-6.98,7.55
			c-3.03,4.09-8.57,5.19-12.97,2.63c-0.08-0.05-0.17-0.1-0.25-0.14C37.48,15.02,22,17.36,12.52,27.43
			C-0.05,40.79,1.95,61.69,16.15,72.52c8.85,6.75,20.21,7.89,29.83,3.99C53.36,73.53,61.85,75.45,67.52,81.03z"/>
		<g>
			<path class="st5" d="M56.14,63.91c-5.53-3.25-11.97-5.12-18.86-5.12C16.79,58.79,0.16,75.33,0,95.79h37.71
				C37.82,82.2,45.19,70.34,56.14,63.91z"/>
			<path class="st6" d="M75,58.79c-6.88,0-13.32,1.87-18.86,5.12C45.19,70.34,37.82,82.2,37.71,95.79h36.86h0.85
				c0.1-13.59,7.48-25.45,18.43-31.88C88.32,60.66,81.88,58.79,75,58.79z"/>
			<path class="st7" d="M112.71,58.79c-6.88,0-13.32,1.87-18.86,5.12C82.91,70.34,75.53,82.2,75.43,95.79h36.86H150
				C149.84,75.33,133.21,58.79,112.71,58.79z"/>
		</g>
	</g>
	<g>
		<path class="st33" d="M33.16,79.97l-4.71,4.71c-4.43,4.43-4.43,11.6,0,16.03l4.51,4.51c7.81,7.81,7.81,20.47,0,28.27l-4.5,4.5
			c-3.24,3.24-3.24,8.5,0,11.74"/>
		<path class="st33" d="M50.17,79.97l-4.71,4.71c-4.43,4.43-4.43,11.6,0,16.03l4.51,4.51c3.78,3.78,5.73,8.71,5.85,13.67"/>
		<path class="st33" d="M67.19,79.97l-4.71,4.71c-4.43,4.43-4.43,11.6,0,16.03l4.51,4.51c7.81,7.81,7.81,20.47,0,28.27l-4.5,4.5"/>
		<path class="st33" d="M84.2,79.97l-4.71,4.71c-4.43,4.43-4.43,11.6,0,16.03l4.51,4.51"/>
		<path class="st33" d="M101.22,79.97l-4.71,4.71c-4.43,4.43-4.43,11.6,0,16.03l4.51,4.51c7.81,7.81,7.81,20.47,0,28.27l-4.5,4.5"/>
	</g>
</g>
</svg>
