<?xml version="1.0" encoding="utf-8"?>
<!-- Generator: Adobe Illustrator 26.5.0, SVG Export Plug-In . SVG Version: 6.00 Build 0)  -->
<svg version="1.1" id="Capa_1" xmlns="http://www.w3.org/2000/svg" xmlns:xlink="http://www.w3.org/1999/xlink" x="0px" y="0px"
	 viewBox="0 0 150 150" style="enable-background:new 0 0 150 150;" xml:space="preserve">
<style type="text/css">
	.st0{fill:#26236B;}
	.st1{clip-path:url(#SVGID_00000183928447497240176580000003443110411441345428_);fill:#FD4F1C;}
	.st2{clip-path:url(#SVGID_00000183928447497240176580000003443110411441345428_);fill:#26236B;}
	.st3{fill:#F5EBDD;}
	.st4{fill:#3C65B1;}
	.st5{fill:#FD4F1C;}
	.st6{fill:#F7CA07;}
	.st7{fill:#FDF3F3;}
	.st8{fill:none;stroke:#26236B;stroke-width:3.7024;stroke-linecap:round;stroke-linejoin:round;stroke-miterlimit:10;}
	.st9{clip-path:url(#SVGID_00000036251908779724512750000009265337686804700094_);fill:#3C65B1;}
	
		.st10{clip-path:url(#SVGID_00000036251908779724512750000009265337686804700094_);fill:none;stroke:#FDF3F3;stroke-width:1.8512;stroke-miterlimit:10;}
	.st11{clip-path:url(#SVGID_00000114794503972774140540000008969830763142011539_);fill:#FD4F1C;}
	.st12{clip-path:url(#SVGID_00000114794503972774140540000008969830763142011539_);fill:#26236B;}
	.st13{fill:#272943;}
	.st14{fill:none;stroke:#FD4F1C;stroke-width:14.4943;stroke-linecap:round;stroke-linejoin:round;stroke-miterlimit:10;}
	.st15{fill:none;stroke:#F7CA07;stroke-width:5.5536;stroke-miterlimit:10;}
	.st16{fill:none;stroke:#F7CA07;stroke-width:13.9001;stroke-miterlimit:10;}
	.st17{fill:none;stroke:#FDF3F3;stroke-width:1.8512;stroke-linecap:round;stroke-linejoin:round;stroke-miterlimit:10;}
	.st18{fill:none;stroke:#26236B;stroke-width:4.6136;stroke-linecap:round;stroke-linejoin:round;stroke-miterlimit:10;}
	.st19{fill:none;stroke:#FD4F1C;stroke-width:5.5536;stroke-linejoin:round;stroke-miterlimit:10;}
	.st20{fill:none;stroke:#3C65B1;stroke-width:4;stroke-miterlimit:10;}
	.st21{fill:none;stroke:#FFFFFF;stroke-width:4;stroke-miterlimit:10;}
	.st22{fill:none;stroke:#F7CA07;stroke-width:1.8512;stroke-miterlimit:10;}
	.st23{fill:none;stroke:#26236B;stroke-width:4.6472;stroke-linecap:round;stroke-linejoin:round;stroke-miterlimit:10;}
	.st24{fill:none;stroke:#26236B;stroke-width:4.2854;stroke-linecap:round;stroke-linejoin:round;stroke-miterlimit:10;}
	.st25{fill:none;stroke:#F7CA07;stroke-width:20.5117;stroke-linecap:round;stroke-linejoin:round;stroke-miterlimit:10;}
	.st26{clip-path:url(#SVGID_00000090987082106462609350000001662201666755594625_);}
	.st27{clip-path:url(#SVGID_00000088828439142850947040000005260796685190503075_);}
	.st28{fill:none;stroke:#FDF3F3;stroke-width:31.6576;stroke-miterlimit:10;}
	.st29{fill:none;stroke:#3C65B1;stroke-width:4;stroke-linecap:round;stroke-miterlimit:10;}
	.st30{clip-path:url(#SVGID_00000116207388712881368600000009933411646275573154_);fill:#FD4F1C;}
	.st31{fill:none;stroke:#26236B;stroke-width:4;stroke-miterlimit:10;}
	.st32{clip-path:url(#SVGID_00000096780674484199301650000013616706814537025433_);fill:#FD4F1C;}
	.st33{fill:none;stroke:#3C65B1;stroke-width:3;stroke-linecap:round;stroke-miterlimit:10;}
	.st34{fill:none;stroke:#26236B;stroke-width:3;stroke-linecap:round;stroke-linejoin:round;stroke-miterlimit:10;}
	.st35{clip-path:url(#SVGID_00000017479812031344773530000017252913634055094191_);fill:#FD4F1C;}
	.st36{clip-path:url(#SVGID_00000054253713047689462750000007273791203183334040_);fill:#FD4F1C;}
	.st37{fill:none;stroke:#26236B;stroke-width:2.6467;stroke-linecap:round;stroke-linejoin:round;stroke-miterlimit:10;}
	.st38{clip-path:url(#SVGID_00000033355664884485040450000016146256728495357574_);fill:#FD4F1C;}
	.st39{clip-path:url(#SVGID_00000060017039383468626720000001873748763266068367_);fill:#FD4F1C;}
	.st40{fill:none;stroke:#3C65B1;stroke-width:3.2239;stroke-miterlimit:10;}
	.st41{fill:none;stroke:#FFFFFF;stroke-width:3.2239;stroke-miterlimit:10;}
	.st42{fill:none;stroke:#26236B;stroke-width:3.2239;stroke-miterlimit:10;}
</style>
<g>
	
		<ellipse transform="matrix(0.3827 -0.9239 0.9239 0.3827 14.8419 48.5611)" class="st7" cx="43.76" cy="13.17" rx="9.78" ry="9.78"/>
	<ellipse transform="matrix(0.3624 -0.932 0.932 0.3624 -29.1867 33.4672)" class="st7" cx="9.87" cy="38.07" rx="4.89" ry="4.89"/>
	
		<ellipse transform="matrix(0.3827 -0.9239 0.9239 0.3827 -108.8725 120.95)" class="st4" cx="36.07" cy="141.94" rx="4.66" ry="4.66"/>
	
		<ellipse transform="matrix(0.3827 -0.9239 0.9239 0.3827 -15.838 187.1)" class="st4" cx="132.09" cy="105.4" rx="7.56" ry="7.56"/>
	
		<ellipse transform="matrix(0.3434 -0.9392 0.9392 0.3434 -12.2595 193.2682)" class="st3" cx="132.09" cy="105.4" rx="3.23" ry="3.23"/>
	<g>
		<path class="st4" d="M33.14,93.17L48.39,64.1c1.26-3.53-0.61-7.45-4.14-8.71c-3.53-1.26-7.45,0.61-8.71,4.14l-6.5,32.18
			L33.14,93.17z"/>
		<path class="st4" d="M31.28,80.92l-15.25,29.07c-1.26,3.53,0.61,7.45,4.14,8.71c3.53,1.26,7.45-0.61,8.71-4.14l6.5-32.18
			L31.28,80.92z"/>
		<path class="st4" d="M24.95,87.29l28.61,16.09c3.5,1.36,7.47-0.39,8.83-3.89c1.36-3.5-0.39-7.47-3.89-8.83l-31.97-7.44
			L24.95,87.29z"/>
		<path class="st4" d="M37.08,89.79L4.73,84.23c-3.57-1.15-5.55-5.01-4.4-8.58c1.15-3.57,5.01-5.55,8.58-4.4l29.5,14.4L37.08,89.79z
			"/>
		<path class="st4" d="M36.57,91.05L26.8,59.71c-1.61-3.39-5.7-4.84-9.09-3.23c-3.39,1.61-4.84,5.7-3.23,9.09l18.16,27.35
			L36.57,91.05z"/>
		<path class="st4" d="M27.09,83.12l9.77,31.34c1.61,3.39,5.7,4.84,9.09,3.23c3.39-1.61,4.84-5.7,3.23-9.09L31.02,81.25L27.09,83.12
			z"/>
		<path class="st4" d="M27.21,91.42l31.61-8.85c3.43-1.51,5-5.56,3.49-8.99c-1.51-3.43-5.56-5-8.99-3.49L25.45,87.44L27.21,91.42z"
			/>
		<path class="st4" d="M38.12,86.23l-26.81,18.95c-3.34,1.71-7.47,0.38-9.18-2.96c-1.71-3.34-0.38-7.47,2.96-9.18l31.04-10.68
			L38.12,86.23z"/>
		
			<ellipse transform="matrix(0.9998 -0.0174 0.0174 0.9998 -1.5179 0.5746)" class="st0" cx="32.27" cy="87.54" rx="12.77" ry="12.77"/>
		<path class="st7" d="M39.3,90.04c-1.38,3.88-5.64,5.91-9.52,4.53c-3.88-1.38-5.91-5.64-4.53-9.52c1.38-3.88,5.64-5.91,9.52-4.53
			C38.65,81.89,40.68,86.15,39.3,90.04z"/>
		<path class="st0" d="M36.23,88.95c-0.78,2.19-3.18,3.33-5.37,2.55c-2.19-0.78-3.33-3.18-2.55-5.37c0.78-2.19,3.18-3.33,5.37-2.55
			C35.86,84.36,37.01,86.76,36.23,88.95z"/>
	</g>
	<g>
		<path class="st4" d="M109.83,54.2l26.53-29.59c2.52-3.78,1.5-8.93-2.28-11.45c-3.78-2.52-8.93-1.5-11.45,2.28l-17.18,35.83
			L109.83,54.2z"/>
		<path class="st4" d="M111.29,39.27L84.76,68.86c-2.52,3.78-1.5,8.93,2.28,11.45c3.78,2.52,8.93,1.5,11.45-2.28l17.18-35.83
			L111.29,39.27z"/>
		<path class="st4" d="M101.97,44.87l28.8,27.38c3.7,2.63,8.88,1.76,11.51-1.94c2.63-3.7,1.76-8.88-1.94-11.51l-35.31-18.22
			L101.97,44.87z"/>
		<path class="st4" d="M115.46,51.4L79.14,35.27c-3.85-2.41-5.02-7.53-2.61-11.38c2.41-3.85,7.53-5.02,11.38-2.61l30.35,25.65
			L115.46,51.4z"/>
		<path class="st4" d="M114.49,52.72l-2.16-39.68c-0.89-4.45-5.25-7.37-9.71-6.49c-4.45,0.89-7.37,5.25-6.49,9.71l13.19,37.49
			L114.49,52.72z"/>
		<path class="st4" d="M105.72,40.6l2.16,39.68c0.89,4.45,5.25,7.37,9.71,6.49c4.45-0.89,7.37-5.25,6.49-9.71l-13.19-37.49
			L105.72,40.6z"/>
		<path class="st4" d="M103.39,50.39l39.72-1c4.48-0.76,7.52-5.04,6.77-9.51c-0.76-4.48-5.04-7.52-9.51-6.77l-37.85,12.09
			L103.39,50.39z"/>
		<path class="st4" d="M117.74,47.53L80.66,61.81c-4.43,1.02-8.88-1.77-9.89-6.2c-1.02-4.43,1.77-8.88,6.2-9.89l39.6-3.32
			L117.74,47.53z"/>
		
			<ellipse transform="matrix(0.2284 -0.9736 0.9736 0.2284 39.1713 144.0851)" class="st0" cx="110.48" cy="47.33" rx="15.45" ry="15.45"/>
		<path class="st7" d="M117.99,52.35c-2.77,4.15-8.38,5.26-12.52,2.49c-4.15-2.77-5.26-8.38-2.49-12.52
			c2.77-4.15,8.38-5.26,12.52-2.49C119.65,42.59,120.76,48.2,117.99,52.35z"/>
		<path class="st0" d="M114.71,50.16c-1.56,2.34-4.72,2.96-7.05,1.4c-2.34-1.56-2.96-4.72-1.4-7.05c1.56-2.34,4.72-2.96,7.05-1.4
			C115.65,44.66,116.27,47.82,114.71,50.16z"/>
	</g>
	<polygon class="st7" points="92.15,109.96 97.74,120.18 107.96,125.77 97.74,131.36 92.15,141.58 86.56,131.36 76.34,125.77 
		86.56,120.18 	"/>
</g>
</svg>
