<?xml version="1.0" encoding="utf-8"?>
<!-- Generator: Adobe Illustrator 26.5.0, SVG Export Plug-In . SVG Version: 6.00 Build 0)  -->
<svg version="1.1" id="Capa_1" xmlns="http://www.w3.org/2000/svg" xmlns:xlink="http://www.w3.org/1999/xlink" x="0px" y="0px"
	 viewBox="0 0 150 150" style="enable-background:new 0 0 150 150;" xml:space="preserve">
<style type="text/css">
	.st0{fill:#26236B;}
	.st1{clip-path:url(#SVGID_00000060005390008274250730000008884543071236124056_);fill:#FD4F1C;}
	.st2{clip-path:url(#SVGID_00000060005390008274250730000008884543071236124056_);fill:#26236B;}
	.st3{fill:#F5EBDD;}
	.st4{fill:#3C65B1;}
	.st5{fill:#FD4F1C;}
	.st6{fill:#F7CA07;}
	.st7{fill:#FDF3F3;}
	.st8{fill:none;stroke:#26236B;stroke-width:3.7024;stroke-linecap:round;stroke-linejoin:round;stroke-miterlimit:10;}
	.st9{clip-path:url(#SVGID_00000128456796278982934640000001598363447017762238_);fill:#3C65B1;}
	
		.st10{clip-path:url(#SVGID_00000128456796278982934640000001598363447017762238_);fill:none;stroke:#FDF3F3;stroke-width:1.8512;stroke-miterlimit:10;}
	.st11{clip-path:url(#SVGID_00000052100260241909838870000010252998746479298192_);fill:#FD4F1C;}
	.st12{clip-path:url(#SVGID_00000052100260241909838870000010252998746479298192_);fill:#26236B;}
	.st13{fill:#272943;}
	.st14{fill:none;stroke:#FD4F1C;stroke-width:14.4943;stroke-linecap:round;stroke-linejoin:round;stroke-miterlimit:10;}
	.st15{fill:none;stroke:#F7CA07;stroke-width:5.5536;stroke-miterlimit:10;}
	.st16{fill:none;stroke:#F7CA07;stroke-width:13.9001;stroke-miterlimit:10;}
	.st17{fill:none;stroke:#FDF3F3;stroke-width:1.8512;stroke-linecap:round;stroke-linejoin:round;stroke-miterlimit:10;}
	.st18{fill:none;stroke:#26236B;stroke-width:4.6136;stroke-linecap:round;stroke-linejoin:round;stroke-miterlimit:10;}
	.st19{fill:none;stroke:#FD4F1C;stroke-width:5.5536;stroke-linejoin:round;stroke-miterlimit:10;}
	.st20{fill:none;stroke:#3C65B1;stroke-width:4;stroke-miterlimit:10;}
	.st21{fill:none;stroke:#FFFFFF;stroke-width:4;stroke-miterlimit:10;}
	.st22{fill:none;stroke:#F7CA07;stroke-width:1.8512;stroke-miterlimit:10;}
	.st23{fill:none;stroke:#26236B;stroke-width:4.6472;stroke-linecap:round;stroke-linejoin:round;stroke-miterlimit:10;}
	.st24{fill:none;stroke:#26236B;stroke-width:4.2854;stroke-linecap:round;stroke-linejoin:round;stroke-miterlimit:10;}
	.st25{fill:none;stroke:#F7CA07;stroke-width:20.5117;stroke-linecap:round;stroke-linejoin:round;stroke-miterlimit:10;}
	.st26{clip-path:url(#SVGID_00000062186700386485868920000009411856867973059465_);}
	.st27{clip-path:url(#SVGID_00000114752535257630194940000007196531215104350126_);}
	.st28{fill:none;stroke:#FDF3F3;stroke-width:31.6576;stroke-miterlimit:10;}
	.st29{fill:none;stroke:#3C65B1;stroke-width:4;stroke-linecap:round;stroke-miterlimit:10;}
	.st30{clip-path:url(#SVGID_00000080198025528021803720000018347130295166992304_);fill:#FD4F1C;}
	.st31{fill:none;stroke:#26236B;stroke-width:4;stroke-miterlimit:10;}
	.st32{clip-path:url(#SVGID_00000081639599883030140740000007108626566262567103_);fill:#FD4F1C;}
	.st33{fill:none;stroke:#3C65B1;stroke-width:3;stroke-linecap:round;stroke-miterlimit:10;}
	.st34{fill:none;stroke:#26236B;stroke-width:3;stroke-linecap:round;stroke-linejoin:round;stroke-miterlimit:10;}
	.st35{clip-path:url(#SVGID_00000078758687088527431380000016713422755189383843_);fill:#FD4F1C;}
	.st36{clip-path:url(#SVGID_00000023261378766360179450000006415471342973691283_);fill:#FD4F1C;}
	.st37{fill:none;stroke:#26236B;stroke-width:2.6467;stroke-linecap:round;stroke-linejoin:round;stroke-miterlimit:10;}
	.st38{clip-path:url(#SVGID_00000174559526318346851390000014526678433540769213_);fill:#FD4F1C;}
	.st39{clip-path:url(#SVGID_00000153705683960205136650000014794356613603686324_);fill:#FD4F1C;}
	.st40{fill:none;stroke:#3C65B1;stroke-width:3.2239;stroke-miterlimit:10;}
	.st41{fill:none;stroke:#FFFFFF;stroke-width:3.2239;stroke-miterlimit:10;}
	.st42{fill:none;stroke:#26236B;stroke-width:3.2239;stroke-miterlimit:10;}
</style>
<g>
	<path class="st7" d="M75.77,83.36c1.85,1.82,3.9,3.51,6.13,5.03c18.47,12.56,43.98,8.88,58.16-8.38
		c16.73-20.37,11.86-50.96-11.01-64.98C112.97,5.18,92,6.98,77.79,19.38c-2.47,2.16-4.62,4.5-6.45,6.98
		c-2.8,3.78-7.92,4.79-11.99,2.43c-0.08-0.04-0.15-0.09-0.23-0.13C48,22.34,33.69,24.51,24.93,33.82
		c-11.62,12.35-9.77,31.66,3.35,41.68c8.18,6.24,18.68,7.29,27.57,3.69C62.68,76.42,70.53,78.2,75.77,83.36z"/>
	<path class="st4" d="M58.54,99.84c1.85,1.82,3.9,3.51,6.13,5.03c18.47,12.56,43.98,8.88,58.16-8.38
		c16.73-20.37,11.86-50.96-11.01-64.98c-16.08-9.86-37.05-8.06-51.26,4.34c-2.47,2.16-4.62,4.5-6.45,6.98
		c-2.8,3.78-7.92,4.79-11.99,2.43c-0.08-0.04-0.15-0.09-0.23-0.13c-11.11-6.31-25.43-4.15-34.19,5.16
		c-11.62,12.35-9.77,31.66,3.35,41.68c8.18,6.24,18.68,7.29,27.57,3.69C45.45,92.9,53.3,94.68,58.54,99.84z"/>
	<polygon class="st5" points="111.02,31.43 121.6,17.83 120.96,35.04 137.8,31.43 126.24,44.2 141.47,52.26 124.41,54.62 
		130.89,70.57 116.31,61.41 111.02,77.81 105.73,61.41 91.15,70.57 97.63,54.62 80.57,52.26 95.8,44.2 84.24,31.43 101.08,35.04 
		100.45,17.83 	"/>
	<g>
		<polygon class="st6" points="54.48,117.89 61.24,129.59 68,141.3 54.48,141.3 40.97,141.3 47.73,129.59 		"/>
		<polygon class="st6" points="40.91,110.85 47.67,122.55 54.43,134.26 40.91,134.26 27.4,134.26 34.15,122.55 		"/>
		<polygon class="st6" points="27.84,102.81 34.6,114.51 41.36,126.22 27.84,126.22 14.33,126.22 21.08,114.51 		"/>
	</g>
	<g>
		<polygon class="st6" points="99.48,100.73 107.17,114.58 114.87,128.43 99.03,128.17 83.18,127.91 91.33,114.32 		"/>
		<polygon class="st6" points="83.7,92.22 91.4,106.07 99.09,119.92 83.25,119.66 67.41,119.4 75.56,105.81 		"/>
		<polygon class="st6" points="68.54,82.54 76.23,96.39 83.93,110.24 68.09,109.98 52.24,109.72 60.39,96.13 		"/>
	</g>
</g>
</svg>
