<?xml version="1.0" encoding="utf-8"?>
<!-- Generator: Adobe Illustrator 26.5.0, SVG Export Plug-In . SVG Version: 6.00 Build 0)  -->
<svg version="1.1" id="Capa_1" xmlns="http://www.w3.org/2000/svg" xmlns:xlink="http://www.w3.org/1999/xlink" x="0px" y="0px"
	 viewBox="0 0 150 150" style="enable-background:new 0 0 150 150;" xml:space="preserve">
<style type="text/css">
	.st0{fill:#26236B;}
	.st1{clip-path:url(#SVGID_00000101807299884487225780000014829536992194593168_);fill:#FD4F1C;}
	.st2{clip-path:url(#SVGID_00000101807299884487225780000014829536992194593168_);fill:#26236B;}
	.st3{fill:#F5EBDD;}
	.st4{fill:#3C65B1;}
	.st5{fill:#FD4F1C;}
	.st6{fill:#F7CA07;}
	.st7{fill:#FDF3F3;}
	.st8{fill:none;stroke:#26236B;stroke-width:3.7024;stroke-linecap:round;stroke-linejoin:round;stroke-miterlimit:10;}
	.st9{clip-path:url(#SVGID_00000105395522872191477220000015262478402821123982_);fill:#3C65B1;}
	
		.st10{clip-path:url(#SVGID_00000105395522872191477220000015262478402821123982_);fill:none;stroke:#FDF3F3;stroke-width:1.8512;stroke-miterlimit:10;}
	.st11{clip-path:url(#SVGID_00000147214703882529630310000002075684620132582324_);fill:#FD4F1C;}
	.st12{clip-path:url(#SVGID_00000147214703882529630310000002075684620132582324_);fill:#26236B;}
	.st13{fill:#272943;}
	.st14{fill:none;stroke:#FD4F1C;stroke-width:14.4943;stroke-linecap:round;stroke-linejoin:round;stroke-miterlimit:10;}
	.st15{fill:none;stroke:#F7CA07;stroke-width:5.5536;stroke-miterlimit:10;}
	.st16{fill:none;stroke:#F7CA07;stroke-width:13.9001;stroke-miterlimit:10;}
	.st17{fill:none;stroke:#FDF3F3;stroke-width:1.8512;stroke-linecap:round;stroke-linejoin:round;stroke-miterlimit:10;}
	.st18{fill:none;stroke:#26236B;stroke-width:4.6136;stroke-linecap:round;stroke-linejoin:round;stroke-miterlimit:10;}
	.st19{fill:none;stroke:#FD4F1C;stroke-width:5.5536;stroke-linejoin:round;stroke-miterlimit:10;}
	.st20{fill:none;stroke:#3C65B1;stroke-width:4;stroke-miterlimit:10;}
	.st21{fill:none;stroke:#FFFFFF;stroke-width:4;stroke-miterlimit:10;}
	.st22{fill:none;stroke:#F7CA07;stroke-width:1.8512;stroke-miterlimit:10;}
	.st23{fill:none;stroke:#26236B;stroke-width:4.6472;stroke-linecap:round;stroke-linejoin:round;stroke-miterlimit:10;}
	.st24{fill:none;stroke:#26236B;stroke-width:4.2854;stroke-linecap:round;stroke-linejoin:round;stroke-miterlimit:10;}
	.st25{fill:none;stroke:#F7CA07;stroke-width:20.5117;stroke-linecap:round;stroke-linejoin:round;stroke-miterlimit:10;}
	.st26{clip-path:url(#SVGID_00000032639721584965009380000018381826202064849331_);}
	.st27{clip-path:url(#SVGID_00000085957339236520737600000016379858731841351864_);}
	.st28{fill:none;stroke:#FDF3F3;stroke-width:31.6576;stroke-miterlimit:10;}
	.st29{fill:none;stroke:#3C65B1;stroke-width:4;stroke-linecap:round;stroke-miterlimit:10;}
	.st30{clip-path:url(#SVGID_00000033349782818223140220000015212442491612681347_);fill:#FD4F1C;}
	.st31{fill:none;stroke:#26236B;stroke-width:4;stroke-miterlimit:10;}
	.st32{clip-path:url(#SVGID_00000070092348734402646910000014772273138184566414_);fill:#FD4F1C;}
	.st33{fill:none;stroke:#3C65B1;stroke-width:3;stroke-linecap:round;stroke-miterlimit:10;}
	.st34{fill:none;stroke:#26236B;stroke-width:3;stroke-linecap:round;stroke-linejoin:round;stroke-miterlimit:10;}
	.st35{clip-path:url(#SVGID_00000004544714094677092190000012317977834467549375_);fill:#FD4F1C;}
	.st36{clip-path:url(#SVGID_00000153699391264218941640000014338124725986514608_);fill:#FD4F1C;}
	.st37{fill:none;stroke:#26236B;stroke-width:2.6467;stroke-linecap:round;stroke-linejoin:round;stroke-miterlimit:10;}
	.st38{clip-path:url(#SVGID_00000059996654447925012720000005498010598436813726_);fill:#FD4F1C;}
	.st39{clip-path:url(#SVGID_00000052790223431866709930000010224866709266591380_);fill:#FD4F1C;}
	.st40{fill:none;stroke:#3C65B1;stroke-width:3.2239;stroke-miterlimit:10;}
	.st41{fill:none;stroke:#FFFFFF;stroke-width:3.2239;stroke-miterlimit:10;}
	.st42{fill:none;stroke:#26236B;stroke-width:3.2239;stroke-miterlimit:10;}
</style>
<g>
	
		<ellipse transform="matrix(0.4332 -0.9013 0.9013 0.4332 2.348 104.4609)" class="st6" cx="84.23" cy="50.36" rx="49.63" ry="49.63"/>
	<g>
		<path class="st33" d="M25,81.75l-4.15,4.15c-3.91,3.91-3.91,10.24,0,14.14l3.98,3.98c6.89,6.89,6.89,18.06,0,24.94l-3.97,3.97
			c-2.86,2.86-2.86,7.5,0,10.36l5.97,5.97"/>
		<path class="st33" d="M40.01,81.75l-4.15,4.15c-3.91,3.91-3.91,10.24,0,14.14l3.98,3.98c6.89,6.89,6.89,18.06,0,24.94l-3.97,3.97"
			/>
		<path class="st33" d="M55.02,81.75l-4.15,4.15c-3.91,3.91-3.91,10.24,0,14.14l3.98,3.98c6.89,6.89,6.89,18.06,0,24.94l-3.97,3.97
			c-2.86,2.86-2.86,7.5,0,10.36"/>
		<path class="st33" d="M70.03,81.75l-4.15,4.15c-3.91,3.91-3.91,10.24,0,14.14l3.98,3.98"/>
		<path class="st33" d="M85.05,81.75l-4.15,4.15c-3.91,3.91-3.91,10.24,0,14.14l3.98,3.98c6.89,6.89,6.89,18.06,0,24.94l-3.97,3.97
			c-2.86,2.86-2.86,7.5,0,10.36l5.97,5.97"/>
	</g>
	<g>
		<g>
			<g>
				<path class="st7" d="M105.91,81.48H83.28v-8.33c0-16.72-13.6-30.33-30.33-30.33s-30.33,13.6-30.33,30.33v8.33H0v-8.33
					c0-29.2,23.76-52.96,52.96-52.96s52.96,23.76,52.96,52.96V81.48z"/>
			</g>
		</g>
		<g>
			<defs>
				<path id="SVGID_00000129906151822274689840000007271868086287575211_" d="M105.91,81.48H83.28v-8.33
					c0-16.72-13.6-30.33-30.33-30.33s-30.33,13.6-30.33,30.33v8.33H0v-8.33c0-29.2,23.76-52.96,52.96-52.96s52.96,23.76,52.96,52.96
					V81.48z"/>
			</defs>
			<clipPath id="SVGID_00000028307192764275703690000009890203056385984946_">
				<use xlink:href="#SVGID_00000129906151822274689840000007271868086287575211_"  style="overflow:visible;"/>
			</clipPath>
			
				<circle style="clip-path:url(#SVGID_00000028307192764275703690000009890203056385984946_);fill:#FD4F1C;" cx="18.89" cy="38.37" r="8.29"/>
			
				<circle style="clip-path:url(#SVGID_00000028307192764275703690000009890203056385984946_);fill:#FD4F1C;" cx="48.92" cy="42.52" r="8.29"/>
			
				<circle style="clip-path:url(#SVGID_00000028307192764275703690000009890203056385984946_);fill:#FD4F1C;" cx="67.08" cy="20.93" r="8.29"/>
			
				<circle style="clip-path:url(#SVGID_00000028307192764275703690000009890203056385984946_);fill:#FD4F1C;" cx="89.52" cy="41.37" r="8.29"/>
			
				<circle style="clip-path:url(#SVGID_00000028307192764275703690000009890203056385984946_);fill:#FD4F1C;" cx="78.08" cy="64.82" r="8.29"/>
			
				<circle style="clip-path:url(#SVGID_00000028307192764275703690000009890203056385984946_);fill:#FD4F1C;" cx="19.89" cy="69.39" r="8.29"/>
		</g>
	</g>
	<g>
		<path class="st4" d="M114.26,41.44c-19.74,0-35.74,16-35.74,35.74v7.15H150v-7.15C150,57.45,134,41.44,114.26,41.44z"/>
	</g>
</g>
</svg>
