<?xml version="1.0" encoding="utf-8"?>
<!-- Generator: Adobe Illustrator 26.5.0, SVG Export Plug-In . SVG Version: 6.00 Build 0)  -->
<svg version="1.1" id="Capa_1" xmlns="http://www.w3.org/2000/svg" xmlns:xlink="http://www.w3.org/1999/xlink" x="0px" y="0px"
	 viewBox="0 0 150 150" style="enable-background:new 0 0 150 150;" xml:space="preserve">
<style type="text/css">
	.st0{fill:#26236B;}
	.st1{clip-path:url(#SVGID_00000078724296555598034310000018366072791139352719_);fill:#FD4F1C;}
	.st2{clip-path:url(#SVGID_00000078724296555598034310000018366072791139352719_);fill:#26236B;}
	.st3{fill:#F5EBDD;}
	.st4{fill:#3C65B1;}
	.st5{fill:#FD4F1C;}
	.st6{fill:#F7CA07;}
	.st7{fill:#FDF3F3;}
	.st8{fill:none;stroke:#26236B;stroke-width:3.7024;stroke-linecap:round;stroke-linejoin:round;stroke-miterlimit:10;}
	.st9{clip-path:url(#SVGID_00000116921721484975962400000011355159374979902642_);fill:#3C65B1;}
	
		.st10{clip-path:url(#SVGID_00000116921721484975962400000011355159374979902642_);fill:none;stroke:#FDF3F3;stroke-width:1.8512;stroke-miterlimit:10;}
	.st11{clip-path:url(#SVGID_00000147927516136468855460000005876419418370784682_);fill:#FD4F1C;}
	.st12{clip-path:url(#SVGID_00000147927516136468855460000005876419418370784682_);fill:#26236B;}
	.st13{fill:#272943;}
	.st14{fill:none;stroke:#FD4F1C;stroke-width:14.4943;stroke-linecap:round;stroke-linejoin:round;stroke-miterlimit:10;}
	.st15{fill:none;stroke:#F7CA07;stroke-width:5.5536;stroke-miterlimit:10;}
	.st16{fill:none;stroke:#F7CA07;stroke-width:13.9001;stroke-miterlimit:10;}
	.st17{fill:none;stroke:#FDF3F3;stroke-width:1.8512;stroke-linecap:round;stroke-linejoin:round;stroke-miterlimit:10;}
	.st18{fill:none;stroke:#26236B;stroke-width:4.6136;stroke-linecap:round;stroke-linejoin:round;stroke-miterlimit:10;}
	.st19{fill:none;stroke:#FD4F1C;stroke-width:5.5536;stroke-linejoin:round;stroke-miterlimit:10;}
	.st20{fill:none;stroke:#3C65B1;stroke-width:4;stroke-miterlimit:10;}
	.st21{fill:none;stroke:#FFFFFF;stroke-width:4;stroke-miterlimit:10;}
	.st22{fill:none;stroke:#F7CA07;stroke-width:1.8512;stroke-miterlimit:10;}
	.st23{fill:none;stroke:#26236B;stroke-width:4.6472;stroke-linecap:round;stroke-linejoin:round;stroke-miterlimit:10;}
	.st24{fill:none;stroke:#26236B;stroke-width:4.2854;stroke-linecap:round;stroke-linejoin:round;stroke-miterlimit:10;}
	.st25{fill:none;stroke:#F7CA07;stroke-width:20.5117;stroke-linecap:round;stroke-linejoin:round;stroke-miterlimit:10;}
	.st26{clip-path:url(#SVGID_00000143595065982117965540000001389991051638768538_);}
	.st27{clip-path:url(#SVGID_00000101802874251791850210000016133032679059373449_);}
	.st28{fill:none;stroke:#FDF3F3;stroke-width:31.6576;stroke-miterlimit:10;}
	.st29{fill:none;stroke:#3C65B1;stroke-width:4;stroke-linecap:round;stroke-miterlimit:10;}
	.st30{clip-path:url(#SVGID_00000150781263673700822150000000336606313336523435_);fill:#FD4F1C;}
	.st31{fill:none;stroke:#26236B;stroke-width:4;stroke-miterlimit:10;}
	.st32{clip-path:url(#SVGID_00000052790746353236516870000007184199628234120073_);fill:#FD4F1C;}
	.st33{fill:none;stroke:#3C65B1;stroke-width:3;stroke-linecap:round;stroke-miterlimit:10;}
	.st34{fill:none;stroke:#26236B;stroke-width:3;stroke-linecap:round;stroke-linejoin:round;stroke-miterlimit:10;}
	.st35{clip-path:url(#SVGID_00000143614136490242152000000013687330755810923686_);fill:#FD4F1C;}
	.st36{clip-path:url(#SVGID_00000139276498213869983900000000318909444335169940_);fill:#FD4F1C;}
	.st37{fill:none;stroke:#26236B;stroke-width:2.6467;stroke-linecap:round;stroke-linejoin:round;stroke-miterlimit:10;}
	.st38{clip-path:url(#SVGID_00000107568404496007917070000008182926982480990084_);fill:#FD4F1C;}
	.st39{clip-path:url(#SVGID_00000179620441844677460650000007774237538052962964_);fill:#FD4F1C;}
	.st40{fill:none;stroke:#3C65B1;stroke-width:3.2239;stroke-miterlimit:10;}
	.st41{fill:none;stroke:#FFFFFF;stroke-width:3.2239;stroke-miterlimit:10;}
	.st42{fill:none;stroke:#26236B;stroke-width:3.2239;stroke-miterlimit:10;}
</style>
<g>
	
		<ellipse transform="matrix(0.3979 -0.9174 0.9174 0.3979 -21.1953 113.0565)" class="st6" cx="75.53" cy="72.68" rx="65.72" ry="65.72"/>
	<g>
		<path class="st0" d="M72.1,51.95c-4.59-2.7-9.94-4.25-15.65-4.25c-17.02,0-30.82,13.73-30.95,30.72h31.3
			C56.89,67.13,63.01,57.29,72.1,51.95z"/>
		<path class="st4" d="M87.75,47.7c-5.71,0-11.06,1.55-15.65,4.25c-9.09,5.34-15.21,15.18-15.3,26.46H87.4h0.71
			c0.09-11.28,6.21-21.13,15.3-26.46C98.81,49.26,93.46,47.7,87.75,47.7z"/>
		<path class="st7" d="M119.05,47.7c-5.71,0-11.06,1.55-15.65,4.25c-9.09,5.34-15.21,15.18-15.3,26.46h30.59H150
			C149.87,61.43,136.07,47.7,119.05,47.7z"/>
	</g>
	<g>
		<path class="st7" d="M56.14,111.16c-5.53-3.25-11.97-5.12-18.86-5.12c-20.5,0-37.13,16.54-37.29,37.01h37.71
			C37.82,129.45,45.19,117.59,56.14,111.16z"/>
		<path class="st4" d="M75,106.04c-6.88,0-13.32,1.87-18.86,5.12c-10.95,6.43-18.33,18.29-18.43,31.88h36.86h0.85
			c0.1-13.59,7.48-25.45,18.43-31.88C88.32,107.91,81.88,106.04,75,106.04z"/>
		<path class="st7" d="M112.71,106.04c-6.88,0-13.32,1.87-18.86,5.12c-10.95,6.43-18.33,18.29-18.43,31.88h36.86H150
			C149.84,122.58,133.21,106.04,112.71,106.04z"/>
	</g>
</g>
</svg>
