<?xml version="1.0" encoding="utf-8"?>
<!-- Generator: Adobe Illustrator 26.5.0, SVG Export Plug-In . SVG Version: 6.00 Build 0)  -->
<svg version="1.1" id="Capa_1" xmlns="http://www.w3.org/2000/svg" xmlns:xlink="http://www.w3.org/1999/xlink" x="0px" y="0px"
	 viewBox="0 0 150 150" style="enable-background:new 0 0 150 150;" xml:space="preserve">
<style type="text/css">
	.st0{fill:#26236B;}
	.st1{clip-path:url(#SVGID_00000040571745382598405970000000305098775409637798_);fill:#FD4F1C;}
	.st2{clip-path:url(#SVGID_00000040571745382598405970000000305098775409637798_);fill:#26236B;}
	.st3{fill:#F5EBDD;}
	.st4{fill:#3C65B1;}
	.st5{fill:#FD4F1C;}
	.st6{fill:#F7CA07;}
	.st7{fill:#FDF3F3;}
	.st8{fill:none;stroke:#26236B;stroke-width:3.7024;stroke-linecap:round;stroke-linejoin:round;stroke-miterlimit:10;}
	.st9{clip-path:url(#SVGID_00000147198546429031389450000003917813575516502951_);fill:#3C65B1;}
	
		.st10{clip-path:url(#SVGID_00000147198546429031389450000003917813575516502951_);fill:none;stroke:#FDF3F3;stroke-width:1.8512;stroke-miterlimit:10;}
	.st11{clip-path:url(#SVGID_00000125598537624642655220000002483132226660529573_);fill:#FD4F1C;}
	.st12{clip-path:url(#SVGID_00000125598537624642655220000002483132226660529573_);fill:#26236B;}
	.st13{fill:#272943;}
	.st14{fill:none;stroke:#FD4F1C;stroke-width:14.4943;stroke-linecap:round;stroke-linejoin:round;stroke-miterlimit:10;}
	.st15{fill:none;stroke:#F7CA07;stroke-width:5.5536;stroke-miterlimit:10;}
	.st16{fill:none;stroke:#F7CA07;stroke-width:13.9001;stroke-miterlimit:10;}
	.st17{fill:none;stroke:#FDF3F3;stroke-width:1.8512;stroke-linecap:round;stroke-linejoin:round;stroke-miterlimit:10;}
	.st18{fill:none;stroke:#26236B;stroke-width:4.6136;stroke-linecap:round;stroke-linejoin:round;stroke-miterlimit:10;}
	.st19{fill:none;stroke:#FD4F1C;stroke-width:5.5536;stroke-linejoin:round;stroke-miterlimit:10;}
	.st20{fill:none;stroke:#3C65B1;stroke-width:4;stroke-miterlimit:10;}
	.st21{fill:none;stroke:#FFFFFF;stroke-width:4;stroke-miterlimit:10;}
	.st22{fill:none;stroke:#F7CA07;stroke-width:1.8512;stroke-miterlimit:10;}
	.st23{fill:none;stroke:#26236B;stroke-width:4.6472;stroke-linecap:round;stroke-linejoin:round;stroke-miterlimit:10;}
	.st24{fill:none;stroke:#26236B;stroke-width:4.2854;stroke-linecap:round;stroke-linejoin:round;stroke-miterlimit:10;}
	.st25{fill:none;stroke:#F7CA07;stroke-width:20.5117;stroke-linecap:round;stroke-linejoin:round;stroke-miterlimit:10;}
	.st26{clip-path:url(#SVGID_00000075150284720968053530000000327040157042905511_);}
	.st27{clip-path:url(#SVGID_00000067209879363582410320000006468832195045634186_);}
	.st28{fill:none;stroke:#FDF3F3;stroke-width:31.6576;stroke-miterlimit:10;}
	.st29{fill:none;stroke:#3C65B1;stroke-width:4;stroke-linecap:round;stroke-miterlimit:10;}
	.st30{clip-path:url(#SVGID_00000101800208107981735660000003824292923420457636_);fill:#FD4F1C;}
	.st31{fill:none;stroke:#26236B;stroke-width:4;stroke-miterlimit:10;}
	.st32{clip-path:url(#SVGID_00000155123709606830813880000000725100806463433390_);fill:#FD4F1C;}
	.st33{fill:none;stroke:#3C65B1;stroke-width:3;stroke-linecap:round;stroke-miterlimit:10;}
	.st34{fill:none;stroke:#26236B;stroke-width:3;stroke-linecap:round;stroke-linejoin:round;stroke-miterlimit:10;}
	.st35{clip-path:url(#SVGID_00000031908238508267328450000014096507496917661629_);fill:#FD4F1C;}
	.st36{clip-path:url(#SVGID_00000087391528694677894620000005704560350536263072_);fill:#FD4F1C;}
	.st37{fill:none;stroke:#26236B;stroke-width:2.6467;stroke-linecap:round;stroke-linejoin:round;stroke-miterlimit:10;}
	.st38{clip-path:url(#SVGID_00000090973517209348884860000002420773489421579694_);fill:#FD4F1C;}
	.st39{clip-path:url(#SVGID_00000105415176660707680850000014818392242190286770_);fill:#FD4F1C;}
	.st40{fill:none;stroke:#3C65B1;stroke-width:3.2239;stroke-miterlimit:10;}
	.st41{fill:none;stroke:#FFFFFF;stroke-width:3.2239;stroke-miterlimit:10;}
	.st42{fill:none;stroke:#26236B;stroke-width:3.2239;stroke-miterlimit:10;}
</style>
<g>
	<ellipse transform="matrix(0.7071 -0.7071 0.7071 0.7071 -31.066 75)" class="st5" cx="75" cy="75" rx="75" ry="75"/>
	<g>
		<path class="st6" d="M72.38,36.92c0.96,0.03,1.92,0.05,2.88,0.05c20.33,0,39.02-7.4,48.37-19.04c-1.01-0.86-2.04-1.7-3.1-2.51
			c-8.98,11.25-27.76,18.19-48.01,17.51C53.51,32.27,38.39,25.04,32,13.57c-1.1,0.77-2.17,1.57-3.22,2.39
			C35.99,28.4,52.2,36.22,72.38,36.92z"/>
		<path class="st6" d="M46.2,144.26c1.28,0.53,2.59,1.03,3.91,1.49c19.31-23.41,53.58-32.86,82.12-22.31
			c0.9-1.06,1.78-2.14,2.62-3.25C104.12,108.17,66.67,118.49,46.2,144.26z"/>
		<path class="st6" d="M114.67,62.14c-10.11-3.93-20.56-7.99-31.44-7.99c-0.2,0-0.4,0-0.6,0c-9.26,0.13-18.08,3.25-26.61,6.28
			c-9.24,3.27-17.96,6.37-27.16,5.97c-9.84-0.43-19.43-5.28-25.73-12.85c-0.48,1.62-0.91,3.26-1.28,4.92
			c7,7.2,16.8,11.74,26.82,12.17c10.03,0.43,19.55-2.94,28.76-6.21c8.21-2.91,16.69-5.91,25.25-6.03
			c10.27-0.16,20.53,3.84,30.44,7.7c9.87,3.84,20,7.78,30.39,7.78c2.14,0,4.28-0.17,6.44-0.54c-0.03-1.44-0.1-2.87-0.21-4.29
			C138.12,71.24,126.71,66.83,114.67,62.14z"/>
		<path class="st6" d="M3.62,98.04c0.43,1.34,0.9,2.66,1.41,3.96h139.94c0.51-1.32,0.99-2.65,1.42-4H4
			C3.87,98,3.74,98.01,3.62,98.04z"/>
	</g>
</g>
</svg>
