<?xml version="1.0" encoding="UTF-8"?>
<svg id="Capa_1" data-name="Capa 1" xmlns="http://www.w3.org/2000/svg" viewBox="0 0 150 150">
  <defs>
    <style>
      .cls-1 {
        fill: #fdf3f3;
      }

      .cls-2 {
        fill: #3c65b1;
      }

      .cls-3 {
        fill: #26236b;
      }
    </style>
  </defs>
  <g>
    <path class="cls-3" d="M75.39,30.23c-4.4-2.58-9.52-4.07-14.99-4.07-16.3,0-29.52,13.15-29.64,29.42h29.98c.08-10.81,5.95-20.23,14.65-25.35Z"/>
    <path class="cls-2" d="M90.38,26.16c-5.47,0-10.59,1.49-14.99,4.07-8.71,5.11-14.57,14.54-14.65,25.35h29.98c.08-10.81,5.95-20.23,14.65-25.35-4.4-2.58-9.52-4.07-14.99-4.07Z"/>
    <path class="cls-1" d="M120.36,26.16c-5.47,0-10.59,1.49-14.99,4.07-8.71,5.11-14.57,14.54-14.65,25.35h59.28c-.12-16.27-13.34-29.42-29.64-29.42Z"/>
  </g>
  <g>
    <path class="cls-3" d="M54.38,98.49c-4.4-2.58-9.52-4.07-14.99-4.07-16.3,0-29.52,13.15-29.64,29.42h29.98c.08-10.81,5.95-20.23,14.65-25.35Z"/>
    <path class="cls-2" d="M69.37,94.42c-5.47,0-10.59,1.49-14.99,4.07-8.71,5.11-14.57,14.54-14.65,25.35h29.98c.08-10.81,5.95-20.23,14.65-25.35-4.4-2.58-9.52-4.07-14.99-4.07Z"/>
    <path class="cls-1" d="M99.36,94.42c-5.47,0-10.59,1.49-14.99,4.07-8.71,5.11-14.57,14.54-14.65,25.35h59.28c-.12-16.27-13.34-29.42-29.64-29.42Z"/>
  </g>
  <g>
    <path class="cls-3" d="M53.88,51.99c-5.31-3.12-11.49-4.92-18.1-4.92C16.11,47.07,.15,62.95,0,82.58H36.19c.1-13.05,7.18-24.42,17.69-30.6Z"/>
    <path class="cls-2" d="M71.97,47.07c-6.6,0-12.78,1.8-18.1,4.92-10.51,6.17-17.59,17.55-17.69,30.6h36.19c.1-13.05,7.18-24.42,17.69-30.6-5.31-3.12-11.49-4.92-18.1-4.92Z"/>
    <path class="cls-1" d="M108.16,47.07c-6.6,0-12.78,1.8-18.1,4.92-10.51,6.17-17.59,17.55-17.69,30.6h71.56c-.15-19.64-16.11-35.51-35.78-35.51Z"/>
  </g>
</svg>