<?xml version="1.0" encoding="UTF-8"?>
<svg id="Capa_1" data-name="Capa 1" xmlns="http://www.w3.org/2000/svg" viewBox="0 0 150 150">
  <defs>
    <style>
      .cls-1 {
        fill: #fdf3f3;
      }

      .cls-2 {
        fill: #3c65b1;
      }

      .cls-3 {
        fill: #26236b;
      }

      .cls-4 {
        fill: none;
        stroke: #26236b;
        stroke-linecap: round;
        stroke-linejoin: round;
        stroke-width: 3px;
      }
    </style>
  </defs>
  <g>
    <path class="cls-3" d="M67.52,81.03c2,1.97,4.22,3.8,6.64,5.44,19.98,13.59,47.58,9.61,62.92-9.06,18.1-22.03,12.83-55.12-11.91-70.29C107.77-3.55,85.08-1.6,69.71,11.82c-2.68,2.34-4.99,4.87-6.98,7.55-3.03,4.09-8.57,5.19-12.97,2.63-.08-.05-.17-.1-.25-.14-12.02-6.83-27.51-4.49-36.98,5.58C-.05,40.79,1.95,61.69,16.15,72.52c8.85,6.75,20.21,7.89,29.83,3.99,7.37-2.99,15.87-1.06,21.54,4.52Z"/>
    <g>
      <path class="cls-1" d="M56.14,63.91c-5.53-3.25-11.97-5.12-18.86-5.12C16.79,58.79,.16,75.33,0,95.79H37.71c.1-13.59,7.48-25.45,18.43-31.88Z"/>
      <path class="cls-2" d="M75,58.79c-6.88,0-13.32,1.87-18.86,5.12-10.95,6.43-18.33,18.29-18.43,31.88h37.71c.1-13.59,7.48-25.45,18.43-31.88-5.53-3.25-11.97-5.12-18.86-5.12Z"/>
      <path class="cls-1" d="M112.71,58.79c-6.88,0-13.32,1.87-18.86,5.12-10.95,6.43-18.33,18.29-18.43,31.88h74.57c-.16-20.46-16.79-37.01-37.29-37.01Z"/>
    </g>
  </g>
  <g>
    <path class="cls-4" d="M33.16,79.97l-4.71,4.71c-4.43,4.43-4.43,11.6,0,16.03l4.51,4.51c7.81,7.81,7.81,20.47,0,28.27l-4.5,4.5c-3.24,3.24-3.24,8.5,0,11.74"/>
    <path class="cls-4" d="M50.17,79.97l-4.71,4.71c-4.43,4.43-4.43,11.6,0,16.03l4.51,4.51c3.78,3.78,5.73,8.71,5.85,13.67"/>
    <path class="cls-4" d="M67.19,79.97l-4.71,4.71c-4.43,4.43-4.43,11.6,0,16.03l4.51,4.51c7.81,7.81,7.81,20.47,0,28.27l-4.5,4.5"/>
    <path class="cls-4" d="M84.2,79.97l-4.71,4.71c-4.43,4.43-4.43,11.6,0,16.03l4.51,4.51"/>
    <path class="cls-4" d="M101.22,79.97l-4.71,4.71c-4.43,4.43-4.43,11.6,0,16.03l4.51,4.51c7.81,7.81,7.81,20.47,0,28.27l-4.5,4.5"/>
  </g>
</svg>