<?xml version="1.0" encoding="UTF-8"?>
<svg id="Capa_1" data-name="Capa 1" xmlns="http://www.w3.org/2000/svg" viewBox="0 0 150 150">
  <defs>
    <style>
      .cls-1 {
        fill: #f5ebdd;
      }

      .cls-2 {
        fill: #fdf3f3;
      }

      .cls-3 {
        fill: #3c65b1;
      }

      .cls-4 {
        fill: #26236b;
      }
    </style>
  </defs>
  <circle class="cls-4" cx="43.76" cy="13.17" r="9.78" transform="translate(14.84 48.56) rotate(-67.5)"/>
  <circle class="cls-4" cx="9.87" cy="38.07" r="4.89" transform="translate(-29.19 33.47) rotate(-68.75)"/>
  <circle class="cls-3" cx="36.07" cy="141.94" r="4.66" transform="translate(-108.87 120.95) rotate(-67.5)"/>
  <circle class="cls-3" cx="132.09" cy="105.4" r="7.56" transform="translate(-15.84 187.1) rotate(-67.5)"/>
  <circle class="cls-1" cx="132.09" cy="105.4" r="3.23" transform="translate(-12.26 193.27) rotate(-69.92)"/>
  <g>
    <path class="cls-3" d="M33.14,93.17l15.25-29.07c1.26-3.53-.61-7.45-4.14-8.71-3.53-1.26-7.45,.61-8.71,4.14l-6.5,32.18,4.1,1.46Z"/>
    <path class="cls-3" d="M31.28,80.92l-15.25,29.07c-1.26,3.53,.61,7.45,4.14,8.71,3.53,1.26,7.45-.61,8.71-4.14l6.5-32.18-4.1-1.46Z"/>
    <path class="cls-3" d="M24.95,87.29l28.61,16.09c3.5,1.36,7.47-.39,8.83-3.89,1.36-3.5-.39-7.47-3.89-8.83l-31.97-7.44-1.58,4.06Z"/>
    <path class="cls-3" d="M37.08,89.79l-32.35-5.56c-3.57-1.15-5.55-5.01-4.4-8.58,1.15-3.57,5.01-5.55,8.58-4.4l29.5,14.4-1.34,4.15Z"/>
    <path class="cls-3" d="M36.57,91.05l-9.77-31.34c-1.61-3.39-5.7-4.84-9.09-3.23-3.39,1.61-4.84,5.7-3.23,9.09l18.16,27.35,3.93-1.87Z"/>
    <path class="cls-3" d="M27.09,83.12l9.77,31.34c1.61,3.39,5.7,4.84,9.09,3.23,3.39-1.61,4.84-5.7,3.23-9.09l-18.16-27.35-3.93,1.87Z"/>
    <path class="cls-3" d="M27.21,91.42l31.61-8.85c3.43-1.51,5-5.56,3.49-8.99-1.51-3.43-5.56-5-8.99-3.49l-27.87,17.35,1.76,3.99Z"/>
    <path class="cls-3" d="M38.12,86.23l-26.81,18.95c-3.34,1.71-7.47,.38-9.18-2.96-1.71-3.34-.38-7.47,2.96-9.18l31.04-10.68,1.99,3.88Z"/>
    <circle class="cls-4" cx="32.27" cy="87.54" r="12.77" transform="translate(-1.52 .57) rotate(-1)"/>
    <path class="cls-2" d="M39.3,90.04c-1.38,3.88-5.64,5.91-9.52,4.53-3.88-1.38-5.91-5.64-4.53-9.52,1.38-3.88,5.64-5.91,9.52-4.53,3.88,1.38,5.91,5.64,4.53,9.52Z"/>
    <path class="cls-4" d="M36.23,88.95c-.78,2.19-3.18,3.33-5.37,2.55-2.19-.78-3.33-3.18-2.55-5.37,.78-2.19,3.18-3.33,5.37-2.55,2.19,.78,3.33,3.18,2.55,5.37Z"/>
  </g>
  <g>
    <path class="cls-3" d="M109.83,54.2l26.53-29.59c2.52-3.78,1.5-8.93-2.28-11.45-3.78-2.52-8.93-1.5-11.45,2.28l-17.18,35.83,4.38,2.93Z"/>
    <path class="cls-3" d="M111.29,39.27l-26.53,29.59c-2.52,3.78-1.5,8.93,2.28,11.45,3.78,2.52,8.93,1.5,11.45-2.28l17.18-35.83-4.38-2.93Z"/>
    <path class="cls-3" d="M101.97,44.87l28.8,27.38c3.7,2.63,8.88,1.76,11.51-1.94,2.63-3.7,1.76-8.88-1.94-11.51l-35.31-18.22-3.06,4.3Z"/>
    <path class="cls-3" d="M115.46,51.4l-36.32-16.13c-3.85-2.41-5.02-7.53-2.61-11.38,2.41-3.85,7.53-5.02,11.38-2.61l30.35,25.65-2.8,4.47Z"/>
    <path class="cls-3" d="M114.49,52.72l-2.16-39.68c-.89-4.45-5.25-7.37-9.71-6.49-4.45,.89-7.37,5.25-6.49,9.71l13.19,37.49,5.17-1.03Z"/>
    <path class="cls-3" d="M105.72,40.6l2.16,39.68c.89,4.45,5.25,7.37,9.71,6.49,4.45-.89,7.37-5.25,6.49-9.71l-13.19-37.49-5.17,1.03Z"/>
    <path class="cls-3" d="M103.39,50.39l39.72-1c4.48-.76,7.52-5.04,6.77-9.51-.76-4.48-5.04-7.52-9.51-6.77l-37.85,12.09,.88,5.2Z"/>
    <path class="cls-3" d="M117.74,47.53l-37.08,14.27c-4.43,1.02-8.88-1.77-9.89-6.2-1.02-4.43,1.77-8.88,6.2-9.89l39.6-3.32,1.18,5.14Z"/>
    <circle class="cls-4" cx="110.48" cy="47.33" r="15.45" transform="translate(39.17 144.09) rotate(-76.8)"/>
    <path class="cls-2" d="M117.99,52.35c-2.77,4.15-8.38,5.26-12.52,2.49-4.15-2.77-5.26-8.38-2.49-12.52,2.77-4.15,8.38-5.26,12.52-2.49,4.15,2.77,5.26,8.38,2.49,12.52Z"/>
    <path class="cls-4" d="M114.71,50.16c-1.56,2.34-4.72,2.96-7.05,1.4-2.34-1.56-2.96-4.72-1.4-7.05,1.56-2.34,4.72-2.96,7.05-1.4,2.34,1.56,2.96,4.72,1.4,7.05Z"/>
  </g>
  <polygon class="cls-4" points="92.15 109.96 97.74 120.18 107.96 125.77 97.74 131.36 92.15 141.58 86.56 131.36 76.34 125.77 86.56 120.18 92.15 109.96"/>
</svg>