<?xml version="1.0" encoding="UTF-8"?>
<svg id="Capa_1" data-name="Capa 1" xmlns="http://www.w3.org/2000/svg" viewBox="0 0 150 150">
  <defs>
    <style>
      .cls-1 {
        fill: #f7ca07;
      }

      .cls-2 {
        fill: #3c65b1;
      }

      .cls-3 {
        fill: #26236b;
      }

      .cls-4 {
        fill: #fd4f1c;
      }
    </style>
  </defs>
  <path class="cls-2" d="M75.77,83.36c1.85,1.82,3.9,3.51,6.13,5.03,18.47,12.56,43.98,8.88,58.16-8.38,16.73-20.37,11.86-50.96-11.01-64.98-16.08-9.86-37.05-8.06-51.26,4.34-2.47,2.16-4.62,4.5-6.45,6.98-2.8,3.78-7.92,4.79-11.99,2.43-.08-.04-.15-.09-.23-.13-11.11-6.31-25.43-4.15-34.19,5.16-11.62,12.35-9.77,31.66,3.35,41.68,8.18,6.24,18.68,7.29,27.57,3.69,6.82-2.76,14.67-.98,19.91,4.18Z"/>
  <path class="cls-3" d="M58.54,99.84c1.85,1.82,3.9,3.51,6.13,5.03,18.47,12.56,43.98,8.88,58.16-8.38,16.73-20.37,11.86-50.96-11.01-64.98-16.08-9.86-37.05-8.06-51.26,4.34-2.47,2.16-4.62,4.5-6.45,6.98-2.8,3.78-7.92,4.79-11.99,2.43-.08-.04-.15-.09-.23-.13-11.11-6.31-25.43-4.15-34.19,5.16-11.62,12.35-9.77,31.66,3.35,41.68,8.18,6.24,18.68,7.29,27.57,3.69,6.82-2.76,14.67-.98,19.91,4.18Z"/>
  <polygon class="cls-4" points="111.02 31.43 121.6 17.83 120.96 35.04 137.8 31.43 126.24 44.2 141.47 52.26 124.41 54.62 130.89 70.57 116.31 61.41 111.02 77.81 105.73 61.41 91.15 70.57 97.63 54.62 80.57 52.26 95.8 44.2 84.24 31.43 101.08 35.04 100.45 17.83 111.02 31.43"/>
  <g>
    <polygon class="cls-1" points="54.48 117.89 61.24 129.59 68 141.3 54.48 141.3 40.97 141.3 47.73 129.59 54.48 117.89"/>
    <polygon class="cls-1" points="40.91 110.85 47.67 122.55 54.43 134.26 40.91 134.26 27.4 134.26 34.15 122.55 40.91 110.85"/>
    <polygon class="cls-1" points="27.84 102.81 34.6 114.51 41.36 126.22 27.84 126.22 14.33 126.22 21.08 114.51 27.84 102.81"/>
  </g>
  <g>
    <polygon class="cls-1" points="99.48 100.73 107.17 114.58 114.87 128.43 99.03 128.17 83.18 127.91 91.33 114.32 99.48 100.73"/>
    <polygon class="cls-1" points="83.7 92.22 91.4 106.07 99.09 119.92 83.25 119.66 67.41 119.4 75.56 105.81 83.7 92.22"/>
    <polygon class="cls-1" points="68.54 82.54 76.23 96.39 83.93 110.24 68.09 109.98 52.24 109.72 60.39 96.13 68.54 82.54"/>
  </g>
</svg>