<?xml version="1.0" encoding="utf-8"?>
<!-- Generator: Adobe Illustrator 26.5.0, SVG Export Plug-In . SVG Version: 6.00 Build 0)  -->
<svg version="1.1" id="Capa_1" xmlns="http://www.w3.org/2000/svg" xmlns:xlink="http://www.w3.org/1999/xlink" x="0px" y="0px"
	 viewBox="0 0 155 155" style="enable-background:new 0 0 155 155;" xml:space="preserve">
<style type="text/css">
	.st0{fill:#F7CA07;}
	.st1{fill:none;stroke:#26236B;stroke-width:2.65;stroke-linecap:round;stroke-linejoin:round;}
	.st2{fill:#FDF3F3;}
	.st3{clip-path:url(#SVGID_00000049205260192136920840000002846975308350750884_);}
	.st4{fill:#FD4F1C;}
	.st5{fill:#3C65B1;}
</style>
<circle class="st0" cx="86.7" cy="52.9" r="49.6"/>
<g>
	<path class="st1" d="M27.5,84.2l-4.1,4.2c-3.9,3.9-3.9,10.2,0,14.1l4,4c6.9,6.9,6.9,18.1,0,24.9l-4,4c-2.9,2.9-2.9,7.5,0,10.4l6,6"
		/>
	<path class="st1" d="M42.5,84.2l-4.2,4.2c-3.9,3.9-3.9,10.2,0,14.1l4,4c6.9,6.9,6.9,18.1,0,24.9l-4,4"/>
	<path class="st1" d="M57.5,84.2l-4.2,4.2c-3.9,3.9-3.9,10.2,0,14.1l4,4c6.9,6.9,6.9,18.1,0,24.9l-4,4c-2.9,2.9-2.9,7.5,0,10.4"/>
	<path class="st1" d="M72.5,84.2l-4.2,4.2c-3.9,3.9-3.9,10.2,0,14.1l4,4"/>
	<path class="st1" d="M87.6,84.2l-4.2,4.2c-3.9,3.9-3.9,10.2,0,14.1l4,4c6.9,6.9,6.9,18.1,0,24.9l-4,4c-2.9,2.9-2.9,7.5,0,10.4l6,6"
		/>
</g>
<g>
	<path class="st2" d="M108.4,84H85.8v-8.3c0-16.7-13.6-30.3-30.3-30.3S25.1,58.9,25.1,75.7V84H2.5v-8.3c0-29.2,23.8-53,53-53
		s53,23.8,53,53L108.4,84L108.4,84z"/>
	<g>
		<defs>
			<path id="SVGID_1_" d="M108.4,84H85.8v-8.3c0-16.7-13.6-30.3-30.3-30.3S25.1,58.9,25.1,75.7V84H2.5v-8.3c0-29.2,23.8-53,53-53
				s53,23.8,53,53L108.4,84L108.4,84z"/>
		</defs>
		<clipPath id="SVGID_00000167375348018176871100000017662424391132156343_">
			<use xlink:href="#SVGID_1_"  style="overflow:visible;"/>
		</clipPath>
		<g style="clip-path:url(#SVGID_00000167375348018176871100000017662424391132156343_);">
			<circle class="st4" cx="21.4" cy="40.9" r="8.3"/>
			<circle class="st4" cx="51.4" cy="45" r="8.3"/>
			<circle class="st4" cx="69.6" cy="23.4" r="8.3"/>
			<circle class="st4" cx="92" cy="43.9" r="8.3"/>
			<circle class="st4" cx="80.6" cy="67.3" r="8.3"/>
			<circle class="st4" cx="22.4" cy="71.9" r="8.3"/>
		</g>
	</g>
</g>
<path class="st5" d="M116.8,43.9C97,43.9,81,59.9,81,79.7v7.2h71.5v-7.2C152.5,59.9,136.5,43.9,116.8,43.9L116.8,43.9z"/>
</svg>
