<?xml version="1.0" encoding="UTF-8"?>
<svg id="Capa_1" data-name="Capa 1" xmlns="http://www.w3.org/2000/svg" viewBox="0 0 150 150">
  <defs>
    <style>
      .cls-1 {
        fill: #f7ca07;
      }

      .cls-2 {
        fill: #fdf3f3;
      }

      .cls-3 {
        fill: #3c65b1;
      }

      .cls-4 {
        fill: #26236b;
      }
    </style>
  </defs>
  <circle class="cls-1" cx="75.53" cy="72.68" r="65.72" transform="translate(-21.2 113.06) rotate(-66.55)"/>
  <g>
    <path class="cls-4" d="M72.1,51.95c-4.59-2.7-9.94-4.25-15.65-4.25-17.02,0-30.82,13.73-30.95,30.72h31.3c.09-11.28,6.21-21.13,15.3-26.46Z"/>
    <path class="cls-3" d="M87.75,47.7c-5.71,0-11.06,1.55-15.65,4.25-9.09,5.34-15.21,15.18-15.3,26.46h31.3c.09-11.28,6.21-21.13,15.3-26.46-4.59-2.7-9.94-4.25-15.65-4.25Z"/>
    <path class="cls-2" d="M119.05,47.7c-5.71,0-11.06,1.55-15.65,4.25-9.09,5.34-15.21,15.18-15.3,26.46h61.9c-.13-16.99-13.93-30.72-30.95-30.72Z"/>
  </g>
  <g>
    <path class="cls-4" d="M56.14,111.16c-5.53-3.25-11.97-5.12-18.86-5.12C16.79,106.04,.16,122.58,0,143.05H37.71c.1-13.59,7.48-25.45,18.43-31.88Z"/>
    <path class="cls-3" d="M75,106.04c-6.88,0-13.32,1.87-18.86,5.12-10.95,6.43-18.33,18.29-18.43,31.88h37.71c.1-13.59,7.48-25.45,18.43-31.88-5.53-3.25-11.97-5.12-18.86-5.12Z"/>
    <path class="cls-2" d="M112.71,106.04c-6.88,0-13.32,1.87-18.86,5.12-10.95,6.43-18.33,18.29-18.43,31.88h74.57c-.16-20.46-16.79-37.01-37.29-37.01Z"/>
  </g>
</svg>