<?xml version="1.0" encoding="UTF-8"?>
<svg id="Capa_1" data-name="Capa 1" xmlns="http://www.w3.org/2000/svg" viewBox="0 0 150 150">
  <defs>
    <style>
      .cls-1 {
        fill: #f7ca07;
      }

      .cls-2 {
        fill: #fd4f1c;
      }
    </style>
  </defs>
  <circle class="cls-1" cx="75" cy="75" r="75" transform="translate(-31.07 75) rotate(-45)"/>
  <g>
    <path class="cls-2" d="M72.38,36.92c.96,.03,1.92,.05,2.88,.05,20.33,0,39.02-7.4,48.37-19.04-1.01-.86-2.04-1.7-3.1-2.51-8.98,11.25-27.76,18.19-48.01,17.51-19.01-.65-34.13-7.88-40.52-19.35-1.1,.77-2.17,1.57-3.22,2.39,7.22,12.44,23.42,20.27,43.6,20.96Z"/>
    <path class="cls-2" d="M46.2,144.26c1.28,.53,2.59,1.03,3.91,1.49,19.31-23.41,53.58-32.86,82.12-22.31,.9-1.06,1.78-2.14,2.62-3.25-30.74-12.02-68.19-1.7-88.65,24.08Z"/>
    <path class="cls-2" d="M114.67,62.14c-10.11-3.93-20.56-7.99-31.44-7.99-.2,0-.4,0-.6,0-9.26,.13-18.08,3.25-26.61,6.28-9.24,3.27-17.96,6.37-27.16,5.97-9.84-.43-19.43-5.28-25.73-12.85-.48,1.62-.91,3.26-1.28,4.92,7,7.2,16.8,11.74,26.82,12.17,10.03,.43,19.55-2.94,28.76-6.21,8.21-2.91,16.69-5.91,25.25-6.03,10.27-.16,20.53,3.84,30.44,7.7,9.87,3.84,20,7.78,30.39,7.78,2.14,0,4.28-.17,6.44-.54-.03-1.44-.1-2.87-.21-4.29-11.63,2.19-23.03-2.22-35.07-6.91Z"/>
    <path class="cls-2" d="M3.62,98.04c.43,1.34,.9,2.66,1.41,3.96H144.97c.51-1.32,.99-2.65,1.42-4H4c-.13,0-.26,.01-.38,.04Z"/>
  </g>
</svg>