<svg width="240" height="240" viewBox="0 0 240 240" fill="none" xmlns="http://www.w3.org/2000/svg">
<path d="M240 0H0V240H240V0Z" fill="#E386B6"/>
<path d="M47.6325 75.3514C64.5503 75.3514 78.2649 61.6174 78.2649 44.6757C78.2649 27.734 64.5503 14 47.6325 14C30.7146 14 17 27.734 17 44.6757C17 61.6174 30.7146 75.3514 47.6325 75.3514Z" fill="#DD5025"/>
<path d="M119.55 75.3514C136.468 75.3514 150.183 61.6174 150.183 44.6757C150.183 27.734 136.468 14 119.55 14C102.633 14 88.918 27.734 88.918 44.6757C88.918 61.6174 102.633 75.3514 119.55 75.3514Z" fill="#FDFDFD"/>
<path d="M191.483 75.3514C208.401 75.3514 222.115 61.6174 222.115 44.6757C222.115 27.734 208.401 14 191.483 14C174.565 14 160.85 27.734 160.85 44.6757C160.85 61.6174 174.565 75.3514 191.483 75.3514Z" fill="#DD5025"/>
<path d="M47.6325 150.412C64.5503 150.412 78.2649 136.678 78.2649 119.736C78.2649 102.794 64.5503 89.0603 47.6325 89.0603C30.7146 89.0603 17 102.794 17 119.736C17 136.678 30.7146 150.412 47.6325 150.412Z" fill="#DD5025"/>
<path d="M119.55 150.412C136.468 150.412 150.183 136.678 150.183 119.736C150.183 102.794 136.468 89.0603 119.55 89.0603C102.633 89.0603 88.918 102.794 88.918 119.736C88.918 136.678 102.633 150.412 119.55 150.412Z" fill="#DD5025"/>
<path d="M191.483 150.412C208.401 150.412 222.115 136.678 222.115 119.736C222.115 102.794 208.401 89.0603 191.483 89.0603C174.565 89.0603 160.85 102.794 160.85 119.736C160.85 136.678 174.565 150.412 191.483 150.412Z" fill="#DD5025"/>
<path d="M47.6325 225.069C64.5503 225.069 78.2649 211.335 78.2649 194.393C78.2649 177.451 64.5503 163.717 47.6325 163.717C30.7146 163.717 17 177.451 17 194.393C17 211.335 30.7146 225.069 47.6325 225.069Z" fill="#DD5025"/>
<path d="M119.55 225.069C136.468 225.069 150.183 211.335 150.183 194.393C150.183 177.451 136.468 163.717 119.55 163.717C102.633 163.717 88.918 177.451 88.918 194.393C88.918 211.335 102.633 225.069 119.55 225.069Z" fill="#DD5025"/>
<path d="M191.483 225.069C208.401 225.069 222.115 211.335 222.115 194.393C222.115 177.451 208.401 163.717 191.483 163.717C174.565 163.717 160.85 177.451 160.85 194.393C160.85 211.335 174.565 225.069 191.483 225.069Z" fill="#FDFDFD"/>
</svg>
