<svg width="240" height="240" viewBox="0 0 240 240" fill="none" xmlns="http://www.w3.org/2000/svg">
<rect width="240" height="240" fill="#E386B6"/>
<path d="M0.000244141 186.651L53.6642 240H121.316V174.049L67.6373 120.686L0.000244141 186.651Z" fill="#DD5025"/>
<path d="M67.6517 120.3H0.000244141V186.479H67.6517V120.3Z" fill="#F0E8DB"/>
<path d="M240 172.477L187.716 120L120.338 186.336L173.801 240H240V172.477Z" fill="#2C2864"/>
<path d="M187.716 120H120.338V186.336H187.716V120Z" fill="#F0E8DB"/>
<path d="M0.00012207 66.6508L53.6641 120H121.315V54.0493L67.6372 0.685791L0.00012207 66.6508Z" fill="#2C2864"/>
<path d="M67.6516 0.299805H0.00012207V66.4791H67.6516V0.299805Z" fill="#F0E8DB"/>
<path d="M240 52.4774L187.716 -0.000244141L120.338 66.3362L173.801 120H240V52.4774Z" fill="#DD5025"/>
<path d="M187.716 -0.000244141H120.338V66.3362H187.716V-0.000244141Z" fill="#F0E8DB"/>
</svg>
