<svg width="240" height="240" viewBox="0 0 240 240" fill="none" xmlns="http://www.w3.org/2000/svg">
<path d="M239.61 0.000732422H-0.00012207V240.001H239.61V0.000732422Z" fill="#26226C"/>
<path d="M0.38916 237.961C0.38916 172.817 53.2253 120.001 118.405 120.001C118.975 120.001 119.515 120.001 120.085 120.016C120.07 186.068 66.4892 239.619 0.403738 239.634C0.38913 239.071 0.38916 238.524 0.38916 237.947V237.961Z" fill="#586BB6"/>
<path d="M240 237.961C240 172.817 187.163 120.001 121.984 120.001C121.414 120.001 120.874 120.001 120.304 120.016C120.318 186.068 173.9 239.619 239.985 239.634C240 239.071 240 238.524 240 237.947V237.961Z" fill="#586BB6"/>
<path d="M240 2.041C240 67.1849 187.164 120.001 121.984 120.001C121.414 120.001 120.874 120.001 120.304 119.986C120.319 53.934 173.9 0.382837 239.985 0.368424C240 0.930755 240 1.47866 240 2.05541L240 2.041Z" fill="#586BB6"/>
<path d="M0.389273 2.04099C0.389267 67.1849 53.2255 120.001 118.405 120.001C118.975 120.001 119.515 120.001 120.085 119.986C120.07 53.9341 66.4893 0.382838 0.403895 0.368413C0.389287 0.930744 0.389273 1.47865 0.389273 2.0554L0.389273 2.04099Z" fill="#586BB6"/>
</svg>
