<svg width="240" height="240" viewBox="0 0 240 240" fill="none" xmlns="http://www.w3.org/2000/svg">
<path d="M240 0H0V240H240V0Z" fill="#DD5220"/>
<path d="M227.273 17.54C227.273 76.8384 179.806 124.896 121.242 124.896C120.724 124.896 120.234 124.896 119.73 124.882C119.745 64.7628 167.874 16.0288 227.259 16C227.273 16.5181 227.273 17.0219 227.273 17.54Z" fill="#EDBC2C"/>
<path d="M12 17.54C12 76.8384 59.4675 124.896 118.032 124.896C118.55 124.896 119.039 124.896 119.543 124.882C119.529 64.7628 71.3991 16.0288 12.0144 16C12 16.5181 12 17.0219 12 17.54Z" fill="#E386B6"/>
<path d="M227.273 116.735C227.273 176.034 179.806 224.091 121.242 224.091C120.724 224.091 120.234 224.091 119.73 224.077C119.745 163.958 167.874 115.224 227.259 115.195C227.273 115.713 227.273 116.217 227.273 116.735Z" fill="#E386B6"/>
<path d="M12 116.735C12 176.034 59.4675 224.091 118.032 224.091C118.55 224.091 119.039 224.091 119.543 224.077C119.529 163.958 71.3991 115.224 12.0144 115.195C12 115.713 12 116.217 12 116.735Z" fill="#EDBC2C"/>
</svg>
