<svg width="240" height="240" viewBox="0 0 240 240" fill="none" xmlns="http://www.w3.org/2000/svg">
<rect width="240" height="240" fill="#26226C"/>
<path d="M209.888 120.068C209.888 120.616 209.888 121.149 209.874 121.683C209.023 170.665 169.093 210.119 119.981 210.119C70.8695 210.119 30.9399 170.665 30.0894 121.683C30.075 121.149 30.075 120.616 30.075 120.083C30.0894 70.3508 70.3361 30.0608 119.967 30.0464H119.996C169.641 30.0608 209.874 70.3652 209.888 120.068Z" fill="#EDBC2C"/>
<path d="M119.967 31.3149C119.967 80.3404 80.2828 120.083 31.3149 120.083C30.8825 120.083 30.4788 120.083 30.0464 120.068C30.0608 70.3508 70.3076 30.0608 119.938 30.0464C119.953 30.4788 119.953 30.8825 119.953 31.3149H119.967Z" fill="#586BB6"/>
<path d="M209.888 120.068C209.456 120.083 209.052 120.083 208.62 120.083C159.652 120.083 119.967 80.3404 119.967 31.3149C119.967 30.8825 119.967 30.4788 119.982 30.0464C169.627 30.0608 209.859 70.3652 209.874 120.068H209.888Z" fill="#586BB6"/>
<path d="M119.967 210.133C70.8409 210.133 30.9257 170.679 30.0752 121.697C30.4932 121.682 30.9113 121.682 31.3293 121.682C80.1818 121.682 119.809 161.252 119.982 210.133H119.967Z" fill="#586BB6"/>
<path d="M209.874 121.682C209.023 170.665 169.094 210.119 119.982 210.119C120.155 161.223 159.782 121.668 208.634 121.668C209.052 121.668 209.47 121.668 209.888 121.682H209.874Z" fill="#586BB6"/>
</svg>
