<svg width="240" height="240" viewBox="0 0 240 240" fill="none" xmlns="http://www.w3.org/2000/svg">
<path d="M240 0H0V240H240V0Z" fill="#26226C"/>
<path d="M157.902 234.556C157.902 236.245 157.873 237.949 157.8 239.624H0V85.2599C2.82998 85.0867 5.67438 85 8.54768 85C91.0215 85 157.887 151.967 157.887 234.556H157.902Z" fill="#EDBC2C"/>
<path d="M85.5493 234.556C85.5493 236.246 85.506 237.95 85.3905 239.624H0.0144653V157.93C2.81557 157.613 5.67445 157.454 8.56219 157.454C51.0697 157.454 85.5349 191.991 85.5349 234.556H85.5493Z" fill="#E386B6"/>
<path d="M197.455 60.3645C204.441 60.3571 210.098 54.6819 210.09 47.6885C210.083 40.695 204.414 35.0317 197.429 35.039C190.443 35.0463 184.786 40.7215 184.794 47.715C184.801 54.7084 190.47 60.3718 197.455 60.3645Z" fill="#E386B6"/>
<path d="M197.421 120.534C204.406 120.534 210.069 114.865 210.069 107.871C210.069 100.878 204.406 95.2085 197.421 95.2085C190.436 95.2085 184.773 100.878 184.773 107.871C184.773 114.865 190.436 120.534 197.421 120.534Z" fill="#DD5220"/>
<path d="M197.421 182.26C204.406 182.26 210.069 176.59 210.069 169.597C210.069 162.603 204.406 156.934 197.421 156.934C190.436 156.934 184.773 162.603 184.773 169.597C184.773 176.59 190.436 182.26 197.421 182.26Z" fill="#FDFDFD"/>
</svg>
